<svg id="visual" viewBox="0 0 900 600" width="900" height="600" xmlns="http://www.w3.org/2000/svg" xmlns:xlink="http://www.w3.org/1999/xlink" version="1.1"><rect x="0" y="0" width="900" height="600" fill="#001220"></rect><path d="M0 303L21.5 301.3C43 299.7 86 296.3 128.8 273.8C171.7 251.3 214.3 209.7 257.2 192.8C300 176 343 184 385.8 187.8C428.7 191.7 471.3 191.3 514.2 205.2C557 219 600 247 642.8 266.2C685.7 285.3 728.3 295.7 771.2 295.2C814 294.7 857 283.3 878.5 277.7L900 272L900 601L878.5 601C857 601 814 601 771.2 601C728.3 601 685.7 601 642.8 601C600 601 557 601 514.2 601C471.3 601 428.7 601 385.8 601C343 601 300 601 257.2 601C214.3 601 171.7 601 128.8 601C86 601 43 601 21.5 601L0 601Z" fill="#fa7268"></path><path d="M0 224L21.5 245.5C43 267 86 310 128.8 325.5C171.7 341 214.3 329 257.2 320C300 311 343 305 385.8 305.7C428.7 306.3 471.3 313.7 514.2 309.3C557 305 600 289 642.8 284.3C685.7 279.7 728.3 286.3 771.2 283.7C814 281 857 269 878.5 263L900 257L900 601L878.5 601C857 601 814 601 771.2 601C728.3 601 685.7 601 642.8 601C600 601 557 601 514.2 601C471.3 601 428.7 601 385.8 601C343 601 300 601 257.2 601C214.3 601 171.7 601 128.8 601C86 601 43 601 21.5 601L0 601Z" fill="#f36567"></path><path d="M0 302L21.5 314.5C43 327 86 352 128.8 366.7C171.7 381.3 214.3 385.7 257.2 367.3C300 349 343 308 385.8 294.3C428.7 280.7 471.3 294.3 514.2 301.2C557 308 600 308 642.8 300.3C685.7 292.7 728.3 277.3 771.2 285.5C814 293.7 857 325.3 878.5 341.2L900 357L900 601L878.5 601C857 601 814 601 771.2 601C728.3 601 685.7 601 642.8 601C600 601 557 601 514.2 601C471.3 601 428.7 601 385.8 601C343 601 300 601 257.2 601C214.3 601 171.7 601 128.8 601C86 601 43 601 21.5 601L0 601Z" fill="#eb5967"></path><path d="M0 342L21.5 356.8C43 371.7 86 401.3 128.8 415.3C171.7 429.3 214.3 427.7 257.2 411.7C300 395.7 343 365.3 385.8 365.7C428.7 366 471.3 397 514.2 396.8C557 396.7 600 365.3 642.8 353.8C685.7 342.3 728.3 350.7 771.2 355.5C814 360.3 857 361.7 878.5 362.3L900 363L900 601L878.5 601C857 601 814 601 771.2 601C728.3 601 685.7 601 642.8 601C600 601 557 601 514.2 601C471.3 601 428.7 601 385.8 601C343 601 300 601 257.2 601C214.3 601 171.7 601 128.8 601C86 601 43 601 21.5 601L0 601Z" fill="#e34c67"></path><path d="M0 420L21.5 425.5C43 431 86 442 128.8 446.3C171.7 450.7 214.3 448.3 257.2 447.2C300 446 343 446 385.8 435.7C428.7 425.3 471.3 404.7 514.2 398.7C557 392.7 600 401.3 642.8 415C685.7 428.7 728.3 447.3 771.2 444.2C814 441 857 416 878.5 403.5L900 391L900 601L878.5 601C857 601 814 601 771.2 601C728.3 601 685.7 601 642.8 601C600 601 557 601 514.2 601C471.3 601 428.7 601 385.8 601C343 601 300 601 257.2 601C214.3 601 171.7 601 128.8 601C86 601 43 601 21.5 601L0 601Z" fill="#da3f67"></path><path d="M0 465L21.5 463C43 461 86 457 128.8 464.2C171.7 471.3 214.3 489.7 257.2 495.2C300 500.7 343 493.3 385.8 495.7C428.7 498 471.3 510 514.2 508C557 506 600 490 642.8 483.7C685.7 477.3 728.3 480.7 771.2 485.8C814 491 857 498 878.5 501.5L900 505L900 601L878.5 601C857 601 814 601 771.2 601C728.3 601 685.7 601 642.8 601C600 601 557 601 514.2 601C471.3 601 428.7 601 385.8 601C343 601 300 601 257.2 601C214.3 601 171.7 601 128.8 601C86 601 43 601 21.5 601L0 601Z" fill="#d03267"></path><path d="M0 507L21.5 507.8C43 508.7 86 510.3 128.8 509.2C171.7 508 214.3 504 257.2 511C300 518 343 536 385.8 539.8C428.7 543.7 471.3 533.3 514.2 531.8C557 530.3 600 537.7 642.8 542.2C685.7 546.7 728.3 548.3 771.2 544C814 539.7 857 529.3 878.5 524.2L900 519L900 601L878.5 601C857 601 814 601 771.2 601C728.3 601 685.7 601 642.8 601C600 601 557 601 514.2 601C471.3 601 428.7 601 385.8 601C343 601 300 601 257.2 601C214.3 601 171.7 601 128.8 601C86 601 43 601 21.5 601L0 601Z" fill="#c62368"></path></svg>