<svg id="visual" viewBox="0 0 1080 300" width="1080" height="300" xmlns="http://www.w3.org/2000/svg" xmlns:xlink="http://www.w3.org/1999/xlink" version="1.1"><rect x="0" y="0" width="1080" height="300" fill="#001220"></rect><path d="M0 120L20 117.2C40 114.3 80 108.7 120 107.7C160 106.7 200 110.3 240 113C280 115.7 320 117.3 360 124.3C400 131.3 440 143.7 480 143C520 142.3 560 128.7 600 125C640 121.3 680 127.7 720 134.2C760 140.7 800 147.3 840 148.2C880 149 920 144 960 143.7C1000 143.3 1040 147.7 1060 149.8L1080 152L1080 0L1060 0C1040 0 1000 0 960 0C920 0 880 0 840 0C800 0 760 0 720 0C680 0 640 0 600 0C560 0 520 0 480 0C440 0 400 0 360 0C320 0 280 0 240 0C200 0 160 0 120 0C80 0 40 0 20 0L0 0Z" fill="#8573ff"></path><path d="M0 140L20 135.5C40 131 80 122 120 114.5C160 107 200 101 240 102.5C280 104 320 113 360 114.2C400 115.3 440 108.7 480 107C520 105.3 560 108.7 600 114.7C640 120.7 680 129.3 720 131.7C760 134 800 130 840 122.5C880 115 920 104 960 101.2C1000 98.3 1040 103.7 1060 106.3L1080 109L1080 0L1060 0C1040 0 1000 0 960 0C920 0 880 0 840 0C800 0 760 0 720 0C680 0 640 0 600 0C560 0 520 0 480 0C440 0 400 0 360 0C320 0 280 0 240 0C200 0 160 0 120 0C80 0 40 0 20 0L0 0Z" fill="#9884ff"></path><path d="M0 108L20 104.7C40 101.3 80 94.7 120 92.7C160 90.7 200 93.3 240 97.3C280 101.3 320 106.7 360 103.5C400 100.3 440 88.7 480 88.3C520 88 560 99 600 98.2C640 97.3 680 84.7 720 82.5C760 80.3 800 88.7 840 92.8C880 97 920 97 960 93C1000 89 1040 81 1060 77L1080 73L1080 0L1060 0C1040 0 1000 0 960 0C920 0 880 0 840 0C800 0 760 0 720 0C680 0 640 0 600 0C560 0 520 0 480 0C440 0 400 0 360 0C320 0 280 0 240 0C200 0 160 0 120 0C80 0 40 0 20 0L0 0Z" fill="#aa95ff"></path><path d="M0 83L20 86.3C40 89.7 80 96.3 120 97.8C160 99.3 200 95.7 240 96.5C280 97.3 320 102.7 360 102.3C400 102 440 96 480 95.2C520 94.3 560 98.7 600 97.8C640 97 680 91 720 89C760 87 800 89 840 86.8C880 84.7 920 78.3 960 74C1000 69.7 1040 67.3 1060 66.2L1080 65L1080 0L1060 0C1040 0 1000 0 960 0C920 0 880 0 840 0C800 0 760 0 720 0C680 0 640 0 600 0C560 0 520 0 480 0C440 0 400 0 360 0C320 0 280 0 240 0C200 0 160 0 120 0C80 0 40 0 20 0L0 0Z" fill="#baa6ff"></path><path d="M0 49L20 51.3C40 53.7 80 58.3 120 63.7C160 69 200 75 240 78C280 81 320 81 360 79.3C400 77.7 440 74.3 480 76.2C520 78 560 85 600 81.5C640 78 680 64 720 57.2C760 50.3 800 50.7 840 50.8C880 51 920 51 960 55.8C1000 60.7 1040 70.3 1060 75.2L1080 80L1080 0L1060 0C1040 0 1000 0 960 0C920 0 880 0 840 0C800 0 760 0 720 0C680 0 640 0 600 0C560 0 520 0 480 0C440 0 400 0 360 0C320 0 280 0 240 0C200 0 160 0 120 0C80 0 40 0 20 0L0 0Z" fill="#c9b7ff"></path><path d="M0 63L20 60.7C40 58.3 80 53.7 120 54C160 54.3 200 59.7 240 63.3C280 67 320 69 360 68.8C400 68.7 440 66.3 480 66.5C520 66.7 560 69.3 600 68.5C640 67.7 680 63.3 720 61.7C760 60 800 61 840 61.8C880 62.7 920 63.3 960 59.8C1000 56.3 1040 48.7 1060 44.8L1080 41L1080 0L1060 0C1040 0 1000 0 960 0C920 0 880 0 840 0C800 0 760 0 720 0C680 0 640 0 600 0C560 0 520 0 480 0C440 0 400 0 360 0C320 0 280 0 240 0C200 0 160 0 120 0C80 0 40 0 20 0L0 0Z" fill="#d7c9ff"></path><path d="M0 54L20 52.7C40 51.3 80 48.7 120 48.8C160 49 200 52 240 49.2C280 46.3 320 37.7 360 33.7C400 29.7 440 30.3 480 34.8C520 39.3 560 47.7 600 52C640 56.3 680 56.7 720 55.3C760 54 800 51 840 46.5C880 42 920 36 960 34.5C1000 33 1040 36 1060 37.5L1080 39L1080 0L1060 0C1040 0 1000 0 960 0C920 0 880 0 840 0C800 0 760 0 720 0C680 0 640 0 600 0C560 0 520 0 480 0C440 0 400 0 360 0C320 0 280 0 240 0C200 0 160 0 120 0C80 0 40 0 20 0L0 0Z" fill="#e5dbff"></path><path d="M0 28L20 26.5C40 25 80 22 120 21.2C160 20.3 200 21.7 240 21.5C280 21.3 320 19.7 360 21.2C400 22.7 440 27.3 480 31.7C520 36 560 40 600 40.3C640 40.7 680 37.3 720 36.8C760 36.3 800 38.7 840 39C880 39.3 920 37.7 960 35.2C1000 32.7 1040 29.3 1060 27.7L1080 26L1080 0L1060 0C1040 0 1000 0 960 0C920 0 880 0 840 0C800 0 760 0 720 0C680 0 640 0 600 0C560 0 520 0 480 0C440 0 400 0 360 0C320 0 280 0 240 0C200 0 160 0 120 0C80 0 40 0 20 0L0 0Z" fill="#f2edff"></path><path d="M0 8L20 11.3C40 14.7 80 21.3 120 24.5C160 27.7 200 27.3 240 24.7C280 22 320 17 360 15C400 13 440 14 480 15.2C520 16.3 560 17.7 600 19.7C640 21.7 680 24.3 720 23.2C760 22 800 17 840 16C880 15 920 18 960 20C1000 22 1040 23 1060 23.5L1080 24L1080 0L1060 0C1040 0 1000 0 960 0C920 0 880 0 840 0C800 0 760 0 720 0C680 0 640 0 600 0C560 0 520 0 480 0C440 0 400 0 360 0C320 0 280 0 240 0C200 0 160 0 120 0C80 0 40 0 20 0L0 0Z" fill="#ffffff"></path></svg>