<svg id="visual" viewBox="0 0 7000 1080" width="7000" height="1080" xmlns="http://www.w3.org/2000/svg" xmlns:xlink="http://www.w3.org/1999/xlink" version="1.1"><rect x="0" y="0" width="7000" height="1080" fill="#001220"></rect><path d="M0 747L77.8 760C155.7 773 311.3 799 466.8 796.2C622.3 793.3 777.7 761.7 933.2 757.5C1088.7 753.3 1244.3 776.7 1400 802.7C1555.7 828.7 1711.3 857.3 1866.8 824.8C2022.3 792.3 2177.7 698.7 2333.2 659.5C2488.7 620.3 2644.3 635.7 2800 649.7C2955.7 663.7 3111.3 676.3 3266.8 666.7C3422.3 657 3577.7 625 3733.2 649C3888.7 673 4044.3 753 4200 800.5C4355.7 848 4511.3 863 4666.8 848.2C4822.3 833.3 4977.7 788.7 5133.2 734.7C5288.7 680.7 5444.3 617.3 5600 589.2C5755.7 561 5911.3 568 6066.8 608.5C6222.3 649 6377.7 723 6533.2 772.8C6688.7 822.7 6844.3 848.3 6922.2 861.2L7000 874L7000 1081L6922.2 1081C6844.3 1081 6688.7 1081 6533.2 1081C6377.7 1081 6222.3 1081 6066.8 1081C5911.3 1081 5755.7 1081 5600 1081C5444.3 1081 5288.7 1081 5133.2 1081C4977.7 1081 4822.3 1081 4666.8 1081C4511.3 1081 4355.7 1081 4200 1081C4044.3 1081 3888.7 1081 3733.2 1081C3577.7 1081 3422.3 1081 3266.8 1081C3111.3 1081 2955.7 1081 2800 1081C2644.3 1081 2488.7 1081 2333.2 1081C2177.7 1081 2022.3 1081 1866.8 1081C1711.3 1081 1555.7 1081 1400 1081C1244.3 1081 1088.7 1081 933.2 1081C777.7 1081 622.3 1081 466.8 1081C311.3 1081 155.7 1081 77.8 1081L0 1081Z" fill="#715df2"></path><path d="M0 693L77.8 712.3C155.7 731.7 311.3 770.3 466.8 797C622.3 823.7 777.7 838.3 933.2 837.3C1088.7 836.3 1244.3 819.7 1400 799.8C1555.7 780 1711.3 757 1866.8 761.2C2022.3 765.3 2177.7 796.7 2333.2 811.5C2488.7 826.3 2644.3 824.7 2800 805C2955.7 785.3 3111.3 747.7 3266.8 733.3C3422.3 719 3577.7 728 3733.2 726.5C3888.7 725 4044.3 713 4200 709C4355.7 705 4511.3 709 4666.8 700.7C4822.3 692.3 4977.7 671.7 5133.2 662C5288.7 652.3 5444.3 653.7 5600 680.2C5755.7 706.7 5911.3 758.3 6066.8 758.7C6222.3 759 6377.7 708 6533.2 685.8C6688.7 663.7 6844.3 670.3 6922.2 673.7L7000 677L7000 1081L6922.2 1081C6844.3 1081 6688.7 1081 6533.2 1081C6377.7 1081 6222.3 1081 6066.8 1081C5911.3 1081 5755.7 1081 5600 1081C5444.3 1081 5288.7 1081 5133.2 1081C4977.7 1081 4822.3 1081 4666.8 1081C4511.3 1081 4355.7 1081 4200 1081C4044.3 1081 3888.7 1081 3733.2 1081C3577.7 1081 3422.3 1081 3266.8 1081C3111.3 1081 2955.7 1081 2800 1081C2644.3 1081 2488.7 1081 2333.2 1081C2177.7 1081 2022.3 1081 1866.8 1081C1711.3 1081 1555.7 1081 1400 1081C1244.3 1081 1088.7 1081 933.2 1081C777.7 1081 622.3 1081 466.8 1081C311.3 1081 155.7 1081 77.8 1081L0 1081Z" fill="#a960e2"></path><path d="M0 737L77.8 752.3C155.7 767.7 311.3 798.3 466.8 787.7C622.3 777 777.7 725 933.2 706.5C1088.7 688 1244.3 703 1400 699.3C1555.7 695.7 1711.3 673.3 1866.8 660.8C2022.3 648.3 2177.7 645.7 2333.2 684.3C2488.7 723 2644.3 803 2800 821.3C2955.7 839.7 3111.3 796.3 3266.8 756C3422.3 715.7 3577.7 678.3 3733.2 670.3C3888.7 662.3 4044.3 683.7 4200 701.8C4355.7 720 4511.3 735 4666.8 765.5C4822.3 796 4977.7 842 5133.2 827.7C5288.7 813.3 5444.3 738.7 5600 724.5C5755.7 710.3 5911.3 756.7 6066.8 758C6222.3 759.3 6377.7 715.7 6533.2 695.7C6688.7 675.7 6844.3 679.3 6922.2 681.2L7000 683L7000 1081L6922.2 1081C6844.3 1081 6688.7 1081 6533.2 1081C6377.7 1081 6222.3 1081 6066.8 1081C5911.3 1081 5755.7 1081 5600 1081C5444.3 1081 5288.7 1081 5133.2 1081C4977.7 1081 4822.3 1081 4666.8 1081C4511.3 1081 4355.7 1081 4200 1081C4044.3 1081 3888.7 1081 3733.2 1081C3577.7 1081 3422.3 1081 3266.8 1081C3111.3 1081 2955.7 1081 2800 1081C2644.3 1081 2488.7 1081 2333.2 1081C2177.7 1081 2022.3 1081 1866.8 1081C1711.3 1081 1555.7 1081 1400 1081C1244.3 1081 1088.7 1081 933.2 1081C777.7 1081 622.3 1081 466.8 1081C311.3 1081 155.7 1081 77.8 1081L0 1081Z" fill="#cc69d3"></path><path d="M0 802L77.8 813.3C155.7 824.7 311.3 847.3 466.8 833C622.3 818.7 777.7 767.3 933.2 741.2C1088.7 715 1244.3 714 1400 748.8C1555.7 783.7 1711.3 854.3 1866.8 883.3C2022.3 912.3 2177.7 899.7 2333.2 882.7C2488.7 865.7 2644.3 844.3 2800 850.2C2955.7 856 3111.3 889 3266.8 875.8C3422.3 862.7 3577.7 803.3 3733.2 802.5C3888.7 801.7 4044.3 859.3 4200 867.2C4355.7 875 4511.3 833 4666.8 802C4822.3 771 4977.7 751 5133.2 750.7C5288.7 750.3 5444.3 769.7 5600 776.2C5755.7 782.7 5911.3 776.3 6066.8 763.7C6222.3 751 6377.7 732 6533.2 735.7C6688.7 739.3 6844.3 765.7 6922.2 778.8L7000 792L7000 1081L6922.2 1081C6844.3 1081 6688.7 1081 6533.2 1081C6377.7 1081 6222.3 1081 6066.8 1081C5911.3 1081 5755.7 1081 5600 1081C5444.3 1081 5288.7 1081 5133.2 1081C4977.7 1081 4822.3 1081 4666.8 1081C4511.3 1081 4355.7 1081 4200 1081C4044.3 1081 3888.7 1081 3733.2 1081C3577.7 1081 3422.3 1081 3266.8 1081C3111.3 1081 2955.7 1081 2800 1081C2644.3 1081 2488.7 1081 2333.2 1081C2177.7 1081 2022.3 1081 1866.8 1081C1711.3 1081 1555.7 1081 1400 1081C1244.3 1081 1088.7 1081 933.2 1081C777.7 1081 622.3 1081 466.8 1081C311.3 1081 155.7 1081 77.8 1081L0 1081Z" fill="#e277c7"></path><path d="M0 840L77.8 836.8C155.7 833.7 311.3 827.3 466.8 834.5C622.3 841.7 777.7 862.3 933.2 859.5C1088.7 856.7 1244.3 830.3 1400 825C1555.7 819.7 1711.3 835.3 1866.8 831C2022.3 826.7 2177.7 802.3 2333.2 814.7C2488.7 827 2644.3 876 2800 893C2955.7 910 3111.3 895 3266.8 883.7C3422.3 872.3 3577.7 864.7 3733.2 847.5C3888.7 830.3 4044.3 803.7 4200 810.8C4355.7 818 4511.3 859 4666.8 860.7C4822.3 862.3 4977.7 824.7 5133.2 821.5C5288.7 818.3 5444.3 849.7 5600 847C5755.7 844.3 5911.3 807.7 6066.8 802.7C6222.3 797.7 6377.7 824.3 6533.2 839.2C6688.7 854 6844.3 857 6922.2 858.5L7000 860L7000 1081L6922.2 1081C6844.3 1081 6688.7 1081 6533.2 1081C6377.7 1081 6222.3 1081 6066.8 1081C5911.3 1081 5755.7 1081 5600 1081C5444.3 1081 5288.7 1081 5133.2 1081C4977.7 1081 4822.3 1081 4666.8 1081C4511.3 1081 4355.7 1081 4200 1081C4044.3 1081 3888.7 1081 3733.2 1081C3577.7 1081 3422.3 1081 3266.8 1081C3111.3 1081 2955.7 1081 2800 1081C2644.3 1081 2488.7 1081 2333.2 1081C2177.7 1081 2022.3 1081 1866.8 1081C1711.3 1081 1555.7 1081 1400 1081C1244.3 1081 1088.7 1081 933.2 1081C777.7 1081 622.3 1081 466.8 1081C311.3 1081 155.7 1081 77.8 1081L0 1081Z" fill="#f08abe"></path><path d="M0 870L77.8 876.5C155.7 883 311.3 896 466.8 900.3C622.3 904.7 777.7 900.3 933.2 890.2C1088.7 880 1244.3 864 1400 857.2C1555.7 850.3 1711.3 852.7 1866.8 867C2022.3 881.3 2177.7 907.7 2333.2 911.2C2488.7 914.7 2644.3 895.3 2800 881.5C2955.7 867.7 3111.3 859.3 3266.8 863.5C3422.3 867.7 3577.7 884.3 3733.2 884C3888.7 883.7 4044.3 866.3 4200 871.8C4355.7 877.3 4511.3 905.7 4666.8 904.3C4822.3 903 4977.7 872 5133.2 879.8C5288.7 887.7 5444.3 934.3 5600 938.8C5755.7 943.3 5911.3 905.7 6066.8 901C6222.3 896.3 6377.7 924.7 6533.2 920.8C6688.7 917 6844.3 881 6922.2 863L7000 845L7000 1081L6922.2 1081C6844.3 1081 6688.7 1081 6533.2 1081C6377.7 1081 6222.3 1081 6066.8 1081C5911.3 1081 5755.7 1081 5600 1081C5444.3 1081 5288.7 1081 5133.2 1081C4977.7 1081 4822.3 1081 4666.8 1081C4511.3 1081 4355.7 1081 4200 1081C4044.3 1081 3888.7 1081 3733.2 1081C3577.7 1081 3422.3 1081 3266.8 1081C3111.3 1081 2955.7 1081 2800 1081C2644.3 1081 2488.7 1081 2333.2 1081C2177.7 1081 2022.3 1081 1866.8 1081C1711.3 1081 1555.7 1081 1400 1081C1244.3 1081 1088.7 1081 933.2 1081C777.7 1081 622.3 1081 466.8 1081C311.3 1081 155.7 1081 77.8 1081L0 1081Z" fill="#f79fbb"></path><path d="M0 930L77.8 942C155.7 954 311.3 978 466.8 976.7C622.3 975.3 777.7 948.7 933.2 939C1088.7 929.3 1244.3 936.7 1400 943.5C1555.7 950.3 1711.3 956.7 1866.8 951.2C2022.3 945.7 2177.7 928.3 2333.2 922.5C2488.7 916.7 2644.3 922.3 2800 934.2C2955.7 946 3111.3 964 3266.8 971.3C3422.3 978.7 3577.7 975.3 3733.2 979.7C3888.7 984 4044.3 996 4200 1005.2C4355.7 1014.3 4511.3 1020.7 4666.8 1015.3C4822.3 1010 4977.7 993 5133.2 983.7C5288.7 974.3 5444.3 972.7 5600 961.8C5755.7 951 5911.3 931 6066.8 926.7C6222.3 922.3 6377.7 933.7 6533.2 932C6688.7 930.3 6844.3 915.7 6922.2 908.3L7000 901L7000 1081L6922.2 1081C6844.3 1081 6688.7 1081 6533.2 1081C6377.7 1081 6222.3 1081 6066.8 1081C5911.3 1081 5755.7 1081 5600 1081C5444.3 1081 5288.7 1081 5133.2 1081C4977.7 1081 4822.3 1081 4666.8 1081C4511.3 1081 4355.7 1081 4200 1081C4044.3 1081 3888.7 1081 3733.2 1081C3577.7 1081 3422.3 1081 3266.8 1081C3111.3 1081 2955.7 1081 2800 1081C2644.3 1081 2488.7 1081 2333.2 1081C2177.7 1081 2022.3 1081 1866.8 1081C1711.3 1081 1555.7 1081 1400 1081C1244.3 1081 1088.7 1081 933.2 1081C777.7 1081 622.3 1081 466.8 1081C311.3 1081 155.7 1081 77.8 1081L0 1081Z" fill="#f9b4bf"></path><path d="M0 1051L77.8 1050.8C155.7 1050.7 311.3 1050.3 466.8 1045.5C622.3 1040.7 777.7 1031.3 933.2 1017.2C1088.7 1003 1244.3 984 1400 974.5C1555.7 965 1711.3 965 1866.8 971.2C2022.3 977.3 2177.7 989.7 2333.2 1000.2C2488.7 1010.7 2644.3 1019.3 2800 1014.5C2955.7 1009.7 3111.3 991.3 3266.8 990.3C3422.3 989.3 3577.7 1005.7 3733.2 1007.3C3888.7 1009 4044.3 996 4200 997.5C4355.7 999 4511.3 1015 4666.8 1020.5C4822.3 1026 4977.7 1021 5133.2 1024C5288.7 1027 5444.3 1038 5600 1037.3C5755.7 1036.7 5911.3 1024.3 6066.8 1017.5C6222.3 1010.7 6377.7 1009.3 6533.2 1011.2C6688.7 1013 6844.3 1018 6922.2 1020.5L7000 1023L7000 1081L6922.2 1081C6844.3 1081 6688.7 1081 6533.2 1081C6377.7 1081 6222.3 1081 6066.8 1081C5911.3 1081 5755.7 1081 5600 1081C5444.3 1081 5288.7 1081 5133.2 1081C4977.7 1081 4822.3 1081 4666.8 1081C4511.3 1081 4355.7 1081 4200 1081C4044.3 1081 3888.7 1081 3733.2 1081C3577.7 1081 3422.3 1081 3266.8 1081C3111.3 1081 2955.7 1081 2800 1081C2644.3 1081 2488.7 1081 2333.2 1081C2177.7 1081 2022.3 1081 1866.8 1081C1711.3 1081 1555.7 1081 1400 1081C1244.3 1081 1088.7 1081 933.2 1081C777.7 1081 622.3 1081 466.8 1081C311.3 1081 155.7 1081 77.8 1081L0 1081Z" fill="#f7caca"></path></svg>