<svg id="visual" viewBox="0 0 7000 1080" width="7000" height="1080" xmlns="http://www.w3.org/2000/svg" xmlns:xlink="http://www.w3.org/1999/xlink" version="1.1"><rect x="0" y="0" width="7000" height="1080" fill="#001220"></rect><path d="M0 726L89.7 687.7C179.3 649.3 358.7 572.7 538.2 571.5C717.7 570.3 897.3 644.7 1076.8 691.3C1256.3 738 1435.7 757 1615.2 752.5C1794.7 748 1974.3 720 2153.8 714.7C2333.3 709.3 2512.7 726.7 2692.2 697.3C2871.7 668 3051.3 592 3230.8 561C3410.3 530 3589.7 544 3769.2 553.8C3948.7 563.7 4128.3 569.3 4307.8 571.2C4487.3 573 4666.7 571 4846.2 602.3C5025.7 633.7 5205.3 698.3 5384.8 731.2C5564.3 764 5743.7 765 5923.2 757.5C6102.7 750 6282.3 734 6461.8 733.8C6641.3 733.7 6820.7 749.3 6910.3 757.2L7000 765L7000 1081L6910.3 1081C6820.7 1081 6641.3 1081 6461.8 1081C6282.3 1081 6102.7 1081 5923.2 1081C5743.7 1081 5564.3 1081 5384.8 1081C5205.3 1081 5025.7 1081 4846.2 1081C4666.7 1081 4487.3 1081 4307.8 1081C4128.3 1081 3948.7 1081 3769.2 1081C3589.7 1081 3410.3 1081 3230.8 1081C3051.3 1081 2871.7 1081 2692.2 1081C2512.7 1081 2333.3 1081 2153.8 1081C1974.3 1081 1794.7 1081 1615.2 1081C1435.7 1081 1256.3 1081 1076.8 1081C897.3 1081 717.7 1081 538.2 1081C358.7 1081 179.3 1081 89.7 1081L0 1081Z" fill="#ffbdf1"></path><path d="M0 684L89.7 684C179.3 684 358.7 684 538.2 671.8C717.7 659.7 897.3 635.3 1076.8 617.7C1256.3 600 1435.7 589 1615.2 585.3C1794.7 581.7 1974.3 585.3 2153.8 626.3C2333.3 667.3 2512.7 745.7 2692.2 780.3C2871.7 815 3051.3 806 3230.8 786.3C3410.3 766.7 3589.7 736.3 3769.2 703.2C3948.7 670 4128.3 634 4307.8 613.3C4487.3 592.7 4666.7 587.3 4846.2 623.5C5025.7 659.7 5205.3 737.3 5384.8 756.5C5564.3 775.7 5743.7 736.3 5923.2 718.3C6102.7 700.3 6282.3 703.7 6461.8 697C6641.3 690.3 6820.7 673.7 6910.3 665.3L7000 657L7000 1081L6910.3 1081C6820.7 1081 6641.3 1081 6461.8 1081C6282.3 1081 6102.7 1081 5923.2 1081C5743.7 1081 5564.3 1081 5384.8 1081C5205.3 1081 5025.7 1081 4846.2 1081C4666.7 1081 4487.3 1081 4307.8 1081C4128.3 1081 3948.7 1081 3769.2 1081C3589.7 1081 3410.3 1081 3230.8 1081C3051.3 1081 2871.7 1081 2692.2 1081C2512.7 1081 2333.3 1081 2153.8 1081C1974.3 1081 1794.7 1081 1615.2 1081C1435.7 1081 1256.3 1081 1076.8 1081C897.3 1081 717.7 1081 538.2 1081C358.7 1081 179.3 1081 89.7 1081L0 1081Z" fill="#ffc4f2"></path><path d="M0 772L89.7 759.2C179.3 746.3 358.7 720.7 538.2 707.2C717.7 693.7 897.3 692.3 1076.8 680.8C1256.3 669.3 1435.7 647.7 1615.2 637.7C1794.7 627.7 1974.3 629.3 2153.8 649C2333.3 668.7 2512.7 706.3 2692.2 731.7C2871.7 757 3051.3 770 3230.8 764C3410.3 758 3589.7 733 3769.2 737.2C3948.7 741.3 4128.3 774.7 4307.8 765.8C4487.3 757 4666.7 706 4846.2 690C5025.7 674 5205.3 693 5384.8 686.2C5564.3 679.3 5743.7 646.7 5923.2 635.7C6102.7 624.7 6282.3 635.3 6461.8 662.5C6641.3 689.7 6820.7 733.3 6910.3 755.2L7000 777L7000 1081L6910.3 1081C6820.7 1081 6641.3 1081 6461.8 1081C6282.3 1081 6102.7 1081 5923.2 1081C5743.7 1081 5564.3 1081 5384.8 1081C5205.3 1081 5025.7 1081 4846.2 1081C4666.7 1081 4487.3 1081 4307.8 1081C4128.3 1081 3948.7 1081 3769.2 1081C3589.7 1081 3410.3 1081 3230.8 1081C3051.3 1081 2871.7 1081 2692.2 1081C2512.7 1081 2333.3 1081 2153.8 1081C1974.3 1081 1794.7 1081 1615.2 1081C1435.7 1081 1256.3 1081 1076.8 1081C897.3 1081 717.7 1081 538.2 1081C358.7 1081 179.3 1081 89.7 1081L0 1081Z" fill="#ffcaf4"></path><path d="M0 844L89.7 846.7C179.3 849.3 358.7 854.7 538.2 837.2C717.7 819.7 897.3 779.3 1076.8 771.7C1256.3 764 1435.7 789 1615.2 781.7C1794.7 774.3 1974.3 734.7 2153.8 742.5C2333.3 750.3 2512.7 805.7 2692.2 821.5C2871.7 837.3 3051.3 813.7 3230.8 811.2C3410.3 808.7 3589.7 827.3 3769.2 836.7C3948.7 846 4128.3 846 4307.8 849.8C4487.3 853.7 4666.7 861.3 4846.2 841.7C5025.7 822 5205.3 775 5384.8 769.5C5564.3 764 5743.7 800 5923.2 796C6102.7 792 6282.3 748 6461.8 732.3C6641.3 716.7 6820.7 729.3 6910.3 735.7L7000 742L7000 1081L6910.3 1081C6820.7 1081 6641.3 1081 6461.8 1081C6282.3 1081 6102.7 1081 5923.2 1081C5743.7 1081 5564.3 1081 5384.8 1081C5205.3 1081 5025.7 1081 4846.2 1081C4666.7 1081 4487.3 1081 4307.8 1081C4128.3 1081 3948.7 1081 3769.2 1081C3589.7 1081 3410.3 1081 3230.8 1081C3051.3 1081 2871.7 1081 2692.2 1081C2512.7 1081 2333.3 1081 2153.8 1081C1974.3 1081 1794.7 1081 1615.2 1081C1435.7 1081 1256.3 1081 1076.8 1081C897.3 1081 717.7 1081 538.2 1081C358.7 1081 179.3 1081 89.7 1081L0 1081Z" fill="#ffd1f5"></path><path d="M0 751L89.7 765.2C179.3 779.3 358.7 807.7 538.2 822.8C717.7 838 897.3 840 1076.8 832.5C1256.3 825 1435.7 808 1615.2 795.7C1794.7 783.3 1974.3 775.7 2153.8 764C2333.3 752.3 2512.7 736.7 2692.2 742.7C2871.7 748.7 3051.3 776.3 3230.8 800C3410.3 823.7 3589.7 843.3 3769.2 836.3C3948.7 829.3 4128.3 795.7 4307.8 787.3C4487.3 779 4666.7 796 4846.2 795.7C5025.7 795.3 5205.3 777.7 5384.8 761.5C5564.3 745.3 5743.7 730.7 5923.2 728.3C6102.7 726 6282.3 736 6461.8 757.5C6641.3 779 6820.7 812 6910.3 828.5L7000 845L7000 1081L6910.3 1081C6820.7 1081 6641.3 1081 6461.8 1081C6282.3 1081 6102.7 1081 5923.2 1081C5743.7 1081 5564.3 1081 5384.8 1081C5205.3 1081 5025.7 1081 4846.2 1081C4666.7 1081 4487.3 1081 4307.8 1081C4128.3 1081 3948.7 1081 3769.2 1081C3589.7 1081 3410.3 1081 3230.8 1081C3051.3 1081 2871.7 1081 2692.2 1081C2512.7 1081 2333.3 1081 2153.8 1081C1974.3 1081 1794.7 1081 1615.2 1081C1435.7 1081 1256.3 1081 1076.8 1081C897.3 1081 717.7 1081 538.2 1081C358.7 1081 179.3 1081 89.7 1081L0 1081Z" fill="#ffd7f7"></path><path d="M0 905L89.7 884C179.3 863 358.7 821 538.2 809C717.7 797 897.3 815 1076.8 838.5C1256.3 862 1435.7 891 1615.2 881.8C1794.7 872.7 1974.3 825.3 2153.8 818.2C2333.3 811 2512.7 844 2692.2 860.3C2871.7 876.7 3051.3 876.3 3230.8 880C3410.3 883.7 3589.7 891.3 3769.2 881.8C3948.7 872.3 4128.3 845.7 4307.8 835C4487.3 824.3 4666.7 829.7 4846.2 841.8C5025.7 854 5205.3 873 5384.8 874.3C5564.3 875.7 5743.7 859.3 5923.2 840.8C6102.7 822.3 6282.3 801.7 6461.8 813.8C6641.3 826 6820.7 871 6910.3 893.5L7000 916L7000 1081L6910.3 1081C6820.7 1081 6641.3 1081 6461.8 1081C6282.3 1081 6102.7 1081 5923.2 1081C5743.7 1081 5564.3 1081 5384.8 1081C5205.3 1081 5025.7 1081 4846.2 1081C4666.7 1081 4487.3 1081 4307.8 1081C4128.3 1081 3948.7 1081 3769.2 1081C3589.7 1081 3410.3 1081 3230.8 1081C3051.3 1081 2871.7 1081 2692.2 1081C2512.7 1081 2333.3 1081 2153.8 1081C1974.3 1081 1794.7 1081 1615.2 1081C1435.7 1081 1256.3 1081 1076.8 1081C897.3 1081 717.7 1081 538.2 1081C358.7 1081 179.3 1081 89.7 1081L0 1081Z" fill="#ffdef8"></path><path d="M0 940L89.7 936.5C179.3 933 358.7 926 538.2 921.5C717.7 917 897.3 915 1076.8 920.3C1256.3 925.7 1435.7 938.3 1615.2 942.8C1794.7 947.3 1974.3 943.7 2153.8 922C2333.3 900.3 2512.7 860.7 2692.2 857.5C2871.7 854.3 3051.3 887.7 3230.8 882.7C3410.3 877.7 3589.7 834.3 3769.2 817.7C3948.7 801 4128.3 811 4307.8 830C4487.3 849 4666.7 877 4846.2 880.7C5025.7 884.3 5205.3 863.7 5384.8 855.2C5564.3 846.7 5743.7 850.3 5923.2 855.3C6102.7 860.3 6282.3 866.7 6461.8 871.7C6641.3 876.7 6820.7 880.3 6910.3 882.2L7000 884L7000 1081L6910.3 1081C6820.7 1081 6641.3 1081 6461.8 1081C6282.3 1081 6102.7 1081 5923.2 1081C5743.7 1081 5564.3 1081 5384.8 1081C5205.3 1081 5025.7 1081 4846.2 1081C4666.7 1081 4487.3 1081 4307.8 1081C4128.3 1081 3948.7 1081 3769.2 1081C3589.7 1081 3410.3 1081 3230.8 1081C3051.3 1081 2871.7 1081 2692.2 1081C2512.7 1081 2333.3 1081 2153.8 1081C1974.3 1081 1794.7 1081 1615.2 1081C1435.7 1081 1256.3 1081 1076.8 1081C897.3 1081 717.7 1081 538.2 1081C358.7 1081 179.3 1081 89.7 1081L0 1081Z" fill="#ffe5f9"></path><path d="M0 870L89.7 865C179.3 860 358.7 850 538.2 855.8C717.7 861.7 897.3 883.3 1076.8 895.2C1256.3 907 1435.7 909 1615.2 902.5C1794.7 896 1974.3 881 2153.8 883.5C2333.3 886 2512.7 906 2692.2 910.8C2871.7 915.7 3051.3 905.3 3230.8 910C3410.3 914.7 3589.7 934.3 3769.2 940.5C3948.7 946.7 4128.3 939.3 4307.8 933.5C4487.3 927.7 4666.7 923.3 4846.2 921.2C5025.7 919 5205.3 919 5384.8 914.5C5564.3 910 5743.7 901 5923.2 905C6102.7 909 6282.3 926 6461.8 921.3C6641.3 916.7 6820.7 890.3 6910.3 877.2L7000 864L7000 1081L6910.3 1081C6820.7 1081 6641.3 1081 6461.8 1081C6282.3 1081 6102.7 1081 5923.2 1081C5743.7 1081 5564.3 1081 5384.8 1081C5205.3 1081 5025.7 1081 4846.2 1081C4666.7 1081 4487.3 1081 4307.8 1081C4128.3 1081 3948.7 1081 3769.2 1081C3589.7 1081 3410.3 1081 3230.8 1081C3051.3 1081 2871.7 1081 2692.2 1081C2512.7 1081 2333.3 1081 2153.8 1081C1974.3 1081 1794.7 1081 1615.2 1081C1435.7 1081 1256.3 1081 1076.8 1081C897.3 1081 717.7 1081 538.2 1081C358.7 1081 179.3 1081 89.7 1081L0 1081Z" fill="#ffebfb"></path><path d="M0 957L89.7 962.3C179.3 967.7 358.7 978.3 538.2 986.2C717.7 994 897.3 999 1076.8 996.2C1256.3 993.3 1435.7 982.7 1615.2 982.8C1794.7 983 1974.3 994 2153.8 985.3C2333.3 976.7 2512.7 948.3 2692.2 936.3C2871.7 924.3 3051.3 928.7 3230.8 934.3C3410.3 940 3589.7 947 3769.2 948.7C3948.7 950.3 4128.3 946.7 4307.8 943C4487.3 939.3 4666.7 935.7 4846.2 944.7C5025.7 953.7 5205.3 975.3 5384.8 988C5564.3 1000.7 5743.7 1004.3 5923.2 991.7C6102.7 979 6282.3 950 6461.8 938.7C6641.3 927.3 6820.7 933.7 6910.3 936.8L7000 940L7000 1081L6910.3 1081C6820.7 1081 6641.3 1081 6461.8 1081C6282.3 1081 6102.7 1081 5923.2 1081C5743.7 1081 5564.3 1081 5384.8 1081C5205.3 1081 5025.7 1081 4846.2 1081C4666.7 1081 4487.3 1081 4307.8 1081C4128.3 1081 3948.7 1081 3769.2 1081C3589.7 1081 3410.3 1081 3230.8 1081C3051.3 1081 2871.7 1081 2692.2 1081C2512.7 1081 2333.3 1081 2153.8 1081C1974.3 1081 1794.7 1081 1615.2 1081C1435.7 1081 1256.3 1081 1076.8 1081C897.3 1081 717.7 1081 538.2 1081C358.7 1081 179.3 1081 89.7 1081L0 1081Z" fill="#fff2fc"></path><path d="M0 987L89.7 995C179.3 1003 358.7 1019 538.2 1022.7C717.7 1026.3 897.3 1017.7 1076.8 1004.7C1256.3 991.7 1435.7 974.3 1615.2 962.8C1794.7 951.3 1974.3 945.7 2153.8 956.3C2333.3 967 2512.7 994 2692.2 998.5C2871.7 1003 3051.3 985 3230.8 987.5C3410.3 990 3589.7 1013 3769.2 1009.5C3948.7 1006 4128.3 976 4307.8 965.3C4487.3 954.7 4666.7 963.3 4846.2 977.3C5025.7 991.3 5205.3 1010.7 5384.8 1008.5C5564.3 1006.3 5743.7 982.7 5923.2 979.3C6102.7 976 6282.3 993 6461.8 993.5C6641.3 994 6820.7 978 6910.3 970L7000 962L7000 1081L6910.3 1081C6820.7 1081 6641.3 1081 6461.8 1081C6282.3 1081 6102.7 1081 5923.2 1081C5743.7 1081 5564.3 1081 5384.8 1081C5205.3 1081 5025.7 1081 4846.2 1081C4666.7 1081 4487.3 1081 4307.8 1081C4128.3 1081 3948.7 1081 3769.2 1081C3589.7 1081 3410.3 1081 3230.8 1081C3051.3 1081 2871.7 1081 2692.2 1081C2512.7 1081 2333.3 1081 2153.8 1081C1974.3 1081 1794.7 1081 1615.2 1081C1435.7 1081 1256.3 1081 1076.8 1081C897.3 1081 717.7 1081 538.2 1081C358.7 1081 179.3 1081 89.7 1081L0 1081Z" fill="#fff8fe"></path><path d="M0 1061L89.7 1051.8C179.3 1042.7 358.7 1024.3 538.2 1019C717.7 1013.7 897.3 1021.3 1076.8 1021.2C1256.3 1021 1435.7 1013 1615.2 1011.2C1794.7 1009.3 1974.3 1013.7 2153.8 1012.7C2333.3 1011.7 2512.7 1005.3 2692.2 1001C2871.7 996.7 3051.3 994.3 3230.8 999.3C3410.3 1004.3 3589.7 1016.7 3769.2 1024.3C3948.7 1032 4128.3 1035 4307.8 1033.2C4487.3 1031.3 4666.7 1024.7 4846.2 1019.2C5025.7 1013.7 5205.3 1009.3 5384.8 1006.7C5564.3 1004 5743.7 1003 5923.2 1001.2C6102.7 999.3 6282.3 996.7 6461.8 1002.3C6641.3 1008 6820.7 1022 6910.3 1029L7000 1036L7000 1081L6910.3 1081C6820.7 1081 6641.3 1081 6461.8 1081C6282.3 1081 6102.7 1081 5923.2 1081C5743.7 1081 5564.3 1081 5384.8 1081C5205.3 1081 5025.7 1081 4846.2 1081C4666.7 1081 4487.3 1081 4307.8 1081C4128.3 1081 3948.7 1081 3769.2 1081C3589.7 1081 3410.3 1081 3230.8 1081C3051.3 1081 2871.7 1081 2692.2 1081C2512.7 1081 2333.3 1081 2153.8 1081C1974.3 1081 1794.7 1081 1615.2 1081C1435.7 1081 1256.3 1081 1076.8 1081C897.3 1081 717.7 1081 538.2 1081C358.7 1081 179.3 1081 89.7 1081L0 1081Z" fill="#ffffff"></path></svg>