<svg id="visual" viewBox="0 0 7000 2000" width="7000" height="2000" xmlns="http://www.w3.org/2000/svg" xmlns:xlink="http://www.w3.org/1999/xlink" version="1.1"><rect x="0" y="0" width="7000" height="2000" fill="#001220"></rect><path d="M0 543L89.7 602.2C179.3 661.3 358.7 779.7 538.2 781.7C717.7 783.7 897.3 669.3 1076.8 597.3C1256.3 525.3 1435.7 495.7 1615.2 502.7C1794.7 509.7 1974.3 553.3 2153.8 561.5C2333.3 569.7 2512.7 542.3 2692.2 587.5C2871.7 632.7 3051.3 750.3 3230.8 798.3C3410.3 846.3 3589.7 824.7 3769.2 809.5C3948.7 794.3 4128.3 785.7 4307.8 783C4487.3 780.3 4666.7 783.7 4846.2 735.2C5025.7 686.7 5205.3 586.3 5384.8 535.5C5564.3 484.7 5743.7 483.3 5923.2 495C6102.7 506.7 6282.3 531.3 6461.8 531.5C6641.3 531.7 6820.7 507.3 6910.3 495.2L7000 483L7000 0L6910.3 0C6820.7 0 6641.3 0 6461.8 0C6282.3 0 6102.7 0 5923.2 0C5743.7 0 5564.3 0 5384.8 0C5205.3 0 5025.7 0 4846.2 0C4666.7 0 4487.3 0 4307.8 0C4128.3 0 3948.7 0 3769.2 0C3589.7 0 3410.3 0 3230.8 0C3051.3 0 2871.7 0 2692.2 0C2512.7 0 2333.3 0 2153.8 0C1974.3 0 1794.7 0 1615.2 0C1435.7 0 1256.3 0 1076.8 0C897.3 0 717.7 0 538.2 0C358.7 0 179.3 0 89.7 0L0 0Z" fill="#038dff"></path><path d="M0 608L89.7 608.2C179.3 608.3 358.7 608.7 538.2 627.7C717.7 646.7 897.3 684.3 1076.8 711.5C1256.3 738.7 1435.7 755.3 1615.2 760.8C1794.7 766.3 1974.3 760.7 2153.8 697.5C2333.3 634.3 2512.7 513.7 2692.2 460C2871.7 406.3 3051.3 419.7 3230.8 450C3410.3 480.3 3589.7 527.7 3769.2 579C3948.7 630.3 4128.3 685.7 4307.8 717.5C4487.3 749.3 4666.7 757.7 4846.2 701.8C5025.7 646 5205.3 526 5384.8 496.3C5564.3 466.7 5743.7 527.3 5923.2 555.2C6102.7 583 6282.3 578 6461.8 588.3C6641.3 598.7 6820.7 624.3 6910.3 637.2L7000 650L7000 0L6910.3 0C6820.7 0 6641.3 0 6461.8 0C6282.3 0 6102.7 0 5923.2 0C5743.7 0 5564.3 0 5384.8 0C5205.3 0 5025.7 0 4846.2 0C4666.7 0 4487.3 0 4307.8 0C4128.3 0 3948.7 0 3769.2 0C3589.7 0 3410.3 0 3230.8 0C3051.3 0 2871.7 0 2692.2 0C2512.7 0 2333.3 0 2153.8 0C1974.3 0 1794.7 0 1615.2 0C1435.7 0 1256.3 0 1076.8 0C897.3 0 717.7 0 538.2 0C358.7 0 179.3 0 89.7 0L0 0Z" fill="#708df9"></path><path d="M0 473L89.7 492.8C179.3 512.7 358.7 552.3 538.2 573C717.7 593.7 897.3 595.3 1076.8 613.2C1256.3 631 1435.7 665 1615.2 680.7C1794.7 696.3 1974.3 693.7 2153.8 663C2333.3 632.3 2512.7 573.7 2692.2 534.5C2871.7 495.3 3051.3 475.7 3230.8 485.2C3410.3 494.7 3589.7 533.3 3769.2 527C3948.7 520.7 4128.3 469.3 4307.8 482.8C4487.3 496.3 4666.7 574.7 4846.2 599.3C5025.7 624 5205.3 595 5384.8 605.5C5564.3 616 5743.7 666 5923.2 682.8C6102.7 699.7 6282.3 683.3 6461.8 641.7C6641.3 600 6820.7 533 6910.3 499.5L7000 466L7000 0L6910.3 0C6820.7 0 6641.3 0 6461.8 0C6282.3 0 6102.7 0 5923.2 0C5743.7 0 5564.3 0 5384.8 0C5205.3 0 5025.7 0 4846.2 0C4666.7 0 4487.3 0 4307.8 0C4128.3 0 3948.7 0 3769.2 0C3589.7 0 3410.3 0 3230.8 0C3051.3 0 2871.7 0 2692.2 0C2512.7 0 2333.3 0 2153.8 0C1974.3 0 1794.7 0 1615.2 0C1435.7 0 1256.3 0 1076.8 0C897.3 0 717.7 0 538.2 0C358.7 0 179.3 0 89.7 0L0 0Z" fill="#9a8df1"></path><path d="M0 362L89.7 357.8C179.3 353.7 358.7 345.3 538.2 372.3C717.7 399.3 897.3 461.7 1076.8 473.7C1256.3 485.7 1435.7 447.3 1615.2 458.5C1794.7 469.7 1974.3 530.3 2153.8 518C2333.3 505.7 2512.7 420.3 2692.2 396C2871.7 371.7 3051.3 408.3 3230.8 412.3C3410.3 416.3 3589.7 387.7 3769.2 373.2C3948.7 358.7 4128.3 358.3 4307.8 352.3C4487.3 346.3 4666.7 334.7 4846.2 365C5025.7 395.3 5205.3 467.7 5384.8 476.2C5564.3 484.7 5743.7 429.3 5923.2 435.7C6102.7 442 6282.3 510 6461.8 534.2C6641.3 558.3 6820.7 538.7 6910.3 528.8L7000 519L7000 0L6910.3 0C6820.7 0 6641.3 0 6461.8 0C6282.3 0 6102.7 0 5923.2 0C5743.7 0 5564.3 0 5384.8 0C5205.3 0 5025.7 0 4846.2 0C4666.7 0 4487.3 0 4307.8 0C4128.3 0 3948.7 0 3769.2 0C3589.7 0 3410.3 0 3230.8 0C3051.3 0 2871.7 0 2692.2 0C2512.7 0 2333.3 0 2153.8 0C1974.3 0 1794.7 0 1615.2 0C1435.7 0 1256.3 0 1076.8 0C897.3 0 717.7 0 538.2 0C358.7 0 179.3 0 89.7 0L0 0Z" fill="#b98fe8"></path><path d="M0 505L89.7 483.3C179.3 461.7 358.7 418.3 538.2 394.8C717.7 371.3 897.3 367.7 1076.8 379.2C1256.3 390.7 1435.7 417.3 1615.2 436.5C1794.7 455.7 1974.3 467.3 2153.8 485.2C2333.3 503 2512.7 527 2692.2 517.7C2871.7 508.3 3051.3 465.7 3230.8 429.2C3410.3 392.7 3589.7 362.3 3769.2 373.2C3948.7 384 4128.3 436 4307.8 448.8C4487.3 461.7 4666.7 435.3 4846.2 435.8C5025.7 436.3 5205.3 463.7 5384.8 488.7C5564.3 513.7 5743.7 536.3 5923.2 539.8C6102.7 543.3 6282.3 527.7 6461.8 494.7C6641.3 461.7 6820.7 411.3 6910.3 386.2L7000 361L7000 0L6910.3 0C6820.7 0 6641.3 0 6461.8 0C6282.3 0 6102.7 0 5923.2 0C5743.7 0 5564.3 0 5384.8 0C5205.3 0 5025.7 0 4846.2 0C4666.7 0 4487.3 0 4307.8 0C4128.3 0 3948.7 0 3769.2 0C3589.7 0 3410.3 0 3230.8 0C3051.3 0 2871.7 0 2692.2 0C2512.7 0 2333.3 0 2153.8 0C1974.3 0 1794.7 0 1615.2 0C1435.7 0 1256.3 0 1076.8 0C897.3 0 717.7 0 538.2 0C358.7 0 179.3 0 89.7 0L0 0Z" fill="#cf93df"></path><path d="M0 268L89.7 300.3C179.3 332.7 358.7 397.3 538.2 415.7C717.7 434 897.3 406 1076.8 369.8C1256.3 333.7 1435.7 289.3 1615.2 303.5C1794.7 317.7 1974.3 390.3 2153.8 401.2C2333.3 412 2512.7 361 2692.2 335.8C2871.7 310.7 3051.3 311.3 3230.8 305.7C3410.3 300 3589.7 288 3769.2 302.7C3948.7 317.3 4128.3 358.7 4307.8 375.2C4487.3 391.7 4666.7 383.3 4846.2 364.5C5025.7 345.7 5205.3 316.3 5384.8 314.3C5564.3 312.3 5743.7 337.7 5923.2 366.3C6102.7 395 6282.3 427 6461.8 408.3C6641.3 389.7 6820.7 320.3 6910.3 285.7L7000 251L7000 0L6910.3 0C6820.7 0 6641.3 0 6461.8 0C6282.3 0 6102.7 0 5923.2 0C5743.7 0 5564.3 0 5384.8 0C5205.3 0 5025.7 0 4846.2 0C4666.7 0 4487.3 0 4307.8 0C4128.3 0 3948.7 0 3769.2 0C3589.7 0 3410.3 0 3230.8 0C3051.3 0 2871.7 0 2692.2 0C2512.7 0 2333.3 0 2153.8 0C1974.3 0 1794.7 0 1615.2 0C1435.7 0 1256.3 0 1076.8 0C897.3 0 717.7 0 538.2 0C358.7 0 179.3 0 89.7 0L0 0Z" fill="#df99d6"></path><path d="M0 213L89.7 218.5C179.3 224 358.7 235 538.2 242.2C717.7 249.3 897.3 252.7 1076.8 244.5C1256.3 236.3 1435.7 216.7 1615.2 209.7C1794.7 202.7 1974.3 208.3 2153.8 241.8C2333.3 275.3 2512.7 336.7 2692.2 341.5C2871.7 346.3 3051.3 294.7 3230.8 302.3C3410.3 310 3589.7 377 3769.2 402.7C3948.7 428.3 4128.3 412.7 4307.8 383.2C4487.3 353.7 4666.7 310.3 4846.2 304.7C5025.7 299 5205.3 331 5384.8 344.2C5564.3 357.3 5743.7 351.7 5923.2 344C6102.7 336.3 6282.3 326.7 6461.8 319C6641.3 311.3 6820.7 305.7 6910.3 302.8L7000 300L7000 0L6910.3 0C6820.7 0 6641.3 0 6461.8 0C6282.3 0 6102.7 0 5923.2 0C5743.7 0 5564.3 0 5384.8 0C5205.3 0 5025.7 0 4846.2 0C4666.7 0 4487.3 0 4307.8 0C4128.3 0 3948.7 0 3769.2 0C3589.7 0 3410.3 0 3230.8 0C3051.3 0 2871.7 0 2692.2 0C2512.7 0 2333.3 0 2153.8 0C1974.3 0 1794.7 0 1615.2 0C1435.7 0 1256.3 0 1076.8 0C897.3 0 717.7 0 538.2 0C358.7 0 179.3 0 89.7 0L0 0Z" fill="#eaa1cf"></path><path d="M0 321L89.7 328.8C179.3 336.7 358.7 352.3 538.2 343.5C717.7 334.7 897.3 301.3 1076.8 283C1256.3 264.7 1435.7 261.3 1615.2 271.2C1794.7 281 1974.3 304 2153.8 300.3C2333.3 296.7 2512.7 266.3 2692.2 259C2871.7 251.7 3051.3 267.3 3230.8 260.2C3410.3 253 3589.7 223 3769.2 213.5C3948.7 204 4128.3 215 4307.8 223.8C4487.3 232.7 4666.7 239.3 4846.2 242.7C5025.7 246 5205.3 246 5384.8 252.8C5564.3 259.7 5743.7 273.3 5923.2 267.2C6102.7 261 6282.3 235 6461.8 242.3C6641.3 249.7 6820.7 290.3 6910.3 310.7L7000 331L7000 0L6910.3 0C6820.7 0 6641.3 0 6461.8 0C6282.3 0 6102.7 0 5923.2 0C5743.7 0 5564.3 0 5384.8 0C5205.3 0 5025.7 0 4846.2 0C4666.7 0 4487.3 0 4307.8 0C4128.3 0 3948.7 0 3769.2 0C3589.7 0 3410.3 0 3230.8 0C3051.3 0 2871.7 0 2692.2 0C2512.7 0 2333.3 0 2153.8 0C1974.3 0 1794.7 0 1615.2 0C1435.7 0 1256.3 0 1076.8 0C897.3 0 717.7 0 538.2 0C358.7 0 179.3 0 89.7 0L0 0Z" fill="#f2aac9"></path><path d="M0 187L89.7 178.8C179.3 170.7 358.7 154.3 538.2 142.3C717.7 130.3 897.3 122.7 1076.8 127C1256.3 131.3 1435.7 147.7 1615.2 147.3C1794.7 147 1974.3 130 2153.8 143.5C2333.3 157 2512.7 201 2692.2 219.7C2871.7 238.3 3051.3 231.7 3230.8 222.8C3410.3 214 3589.7 203 3769.2 200.3C3948.7 197.7 4128.3 203.3 4307.8 209C4487.3 214.7 4666.7 220.3 4846.2 206.3C5025.7 192.3 5205.3 158.7 5384.8 139.2C5564.3 119.7 5743.7 114.3 5923.2 134C6102.7 153.7 6282.3 198.3 6461.8 215.7C6641.3 233 6820.7 223 6910.3 218L7000 213L7000 0L6910.3 0C6820.7 0 6641.3 0 6461.8 0C6282.3 0 6102.7 0 5923.2 0C5743.7 0 5564.3 0 5384.8 0C5205.3 0 5025.7 0 4846.2 0C4666.7 0 4487.3 0 4307.8 0C4128.3 0 3948.7 0 3769.2 0C3589.7 0 3410.3 0 3230.8 0C3051.3 0 2871.7 0 2692.2 0C2512.7 0 2333.3 0 2153.8 0C1974.3 0 1794.7 0 1615.2 0C1435.7 0 1256.3 0 1076.8 0C897.3 0 717.7 0 538.2 0C358.7 0 179.3 0 89.7 0L0 0Z" fill="#f6b4c6"></path><path d="M0 141L89.7 128.8C179.3 116.7 358.7 92.3 538.2 86.8C717.7 81.3 897.3 94.7 1076.8 114.7C1256.3 134.7 1435.7 161.3 1615.2 178.8C1794.7 196.3 1974.3 204.7 2153.8 188.2C2333.3 171.7 2512.7 130.3 2692.2 123.5C2871.7 116.7 3051.3 144.3 3230.8 140.3C3410.3 136.3 3589.7 100.7 3769.2 106C3948.7 111.3 4128.3 157.7 4307.8 174.2C4487.3 190.7 4666.7 177.3 4846.2 155.8C5025.7 134.3 5205.3 104.7 5384.8 108C5564.3 111.3 5743.7 147.7 5923.2 152.8C6102.7 158 6282.3 132 6461.8 131.3C6641.3 130.7 6820.7 155.3 6910.3 167.7L7000 180L7000 0L6910.3 0C6820.7 0 6641.3 0 6461.8 0C6282.3 0 6102.7 0 5923.2 0C5743.7 0 5564.3 0 5384.8 0C5205.3 0 5025.7 0 4846.2 0C4666.7 0 4487.3 0 4307.8 0C4128.3 0 3948.7 0 3769.2 0C3589.7 0 3410.3 0 3230.8 0C3051.3 0 2871.7 0 2692.2 0C2512.7 0 2333.3 0 2153.8 0C1974.3 0 1794.7 0 1615.2 0C1435.7 0 1256.3 0 1076.8 0C897.3 0 717.7 0 538.2 0C358.7 0 179.3 0 89.7 0L0 0Z" fill="#f8bfc7"></path><path d="M0 27L89.7 41C179.3 55 358.7 83 538.2 91.3C717.7 99.7 897.3 88.3 1076.8 88.7C1256.3 89 1435.7 101 1615.2 103.7C1794.7 106.3 1974.3 99.7 2153.8 101.2C2333.3 102.7 2512.7 112.3 2692.2 119C2871.7 125.7 3051.3 129.3 3230.8 121.8C3410.3 114.3 3589.7 95.7 3769.2 84C3948.7 72.3 4128.3 67.7 4307.8 70.3C4487.3 73 4666.7 83 4846.2 91.3C5025.7 99.7 5205.3 106.3 5384.8 110.3C5564.3 114.3 5743.7 115.7 5923.2 118.5C6102.7 121.3 6282.3 125.7 6461.8 117.2C6641.3 108.7 6820.7 87.3 6910.3 76.7L7000 66L7000 0L6910.3 0C6820.7 0 6641.3 0 6461.8 0C6282.3 0 6102.7 0 5923.2 0C5743.7 0 5564.3 0 5384.8 0C5205.3 0 5025.7 0 4846.2 0C4666.7 0 4487.3 0 4307.8 0C4128.3 0 3948.7 0 3769.2 0C3589.7 0 3410.3 0 3230.8 0C3051.3 0 2871.7 0 2692.2 0C2512.7 0 2333.3 0 2153.8 0C1974.3 0 1794.7 0 1615.2 0C1435.7 0 1256.3 0 1076.8 0C897.3 0 717.7 0 538.2 0C358.7 0 179.3 0 89.7 0L0 0Z" fill="#f7caca"></path></svg>