<svg id="visual" viewBox="0 0 7000 2000" width="7000" height="2000" xmlns="http://www.w3.org/2000/svg" xmlns:xlink="http://www.w3.org/1999/xlink" version="1.1"><rect x="0" y="0" width="7000" height="2000" fill="#001220"></rect><path d="M0 652L89.7 723C179.3 794 358.7 936 538.2 938.3C717.7 940.7 897.3 803.3 1076.8 717C1256.3 630.7 1435.7 595.3 1615.2 603.7C1794.7 612 1974.3 664 2153.8 673.8C2333.3 683.7 2512.7 651.3 2692.2 705.7C2871.7 760 3051.3 901 3230.8 958.3C3410.3 1015.7 3589.7 989.3 3769.2 971.2C3948.7 953 4128.3 943 4307.8 939.8C4487.3 936.7 4666.7 940.3 4846.2 882.2C5025.7 824 5205.3 704 5384.8 643C5564.3 582 5743.7 580 5923.2 593.8C6102.7 607.7 6282.3 637.3 6461.8 637.7C6641.3 638 6820.7 609 6910.3 594.5L7000 580L7000 0L6910.3 0C6820.7 0 6641.3 0 6461.8 0C6282.3 0 6102.7 0 5923.2 0C5743.7 0 5564.3 0 5384.8 0C5205.3 0 5025.7 0 4846.2 0C4666.7 0 4487.3 0 4307.8 0C4128.3 0 3948.7 0 3769.2 0C3589.7 0 3410.3 0 3230.8 0C3051.3 0 2871.7 0 2692.2 0C2512.7 0 2333.3 0 2153.8 0C1974.3 0 1794.7 0 1615.2 0C1435.7 0 1256.3 0 1076.8 0C897.3 0 717.7 0 538.2 0C358.7 0 179.3 0 89.7 0L0 0Z" fill="#a0d4ff"></path><path d="M0 730L89.7 730.2C179.3 730.3 358.7 730.7 538.2 753.5C717.7 776.3 897.3 821.7 1076.8 854.3C1256.3 887 1435.7 907 1615.2 913.7C1794.7 920.3 1974.3 913.7 2153.8 837.8C2333.3 762 2512.7 617 2692.2 552.5C2871.7 488 3051.3 504 3230.8 540.3C3410.3 576.7 3589.7 633.3 3769.2 694.8C3948.7 756.3 4128.3 822.7 4307.8 860.8C4487.3 899 4666.7 909 4846.2 842.2C5025.7 775.3 5205.3 631.7 5384.8 596.2C5564.3 560.7 5743.7 633.3 5923.2 666.7C6102.7 700 6282.3 694 6461.8 706.5C6641.3 719 6820.7 750 6910.3 765.5L7000 781L7000 0L6910.3 0C6820.7 0 6641.3 0 6461.8 0C6282.3 0 6102.7 0 5923.2 0C5743.7 0 5564.3 0 5384.8 0C5205.3 0 5025.7 0 4846.2 0C4666.7 0 4487.3 0 4307.8 0C4128.3 0 3948.7 0 3769.2 0C3589.7 0 3410.3 0 3230.8 0C3051.3 0 2871.7 0 2692.2 0C2512.7 0 2333.3 0 2153.8 0C1974.3 0 1794.7 0 1615.2 0C1435.7 0 1256.3 0 1076.8 0C897.3 0 717.7 0 538.2 0C358.7 0 179.3 0 89.7 0L0 0Z" fill="#abd8ff"></path><path d="M0 568L89.7 591.8C179.3 615.7 358.7 663.3 538.2 688.2C717.7 713 897.3 715 1076.8 736.3C1256.3 757.7 1435.7 798.3 1615.2 817C1794.7 835.7 1974.3 832.3 2153.8 795.7C2333.3 759 2512.7 689 2692.2 642C2871.7 595 3051.3 571 3230.8 582.2C3410.3 593.3 3589.7 639.7 3769.2 632.2C3948.7 624.7 4128.3 563.3 4307.8 579.7C4487.3 596 4666.7 690 4846.2 719.5C5025.7 749 5205.3 714 5384.8 726.7C5564.3 739.3 5743.7 799.7 5923.2 819.8C6102.7 840 6282.3 820 6461.8 769.8C6641.3 719.7 6820.7 639.3 6910.3 599.2L7000 559L7000 0L6910.3 0C6820.7 0 6641.3 0 6461.8 0C6282.3 0 6102.7 0 5923.2 0C5743.7 0 5564.3 0 5384.8 0C5205.3 0 5025.7 0 4846.2 0C4666.7 0 4487.3 0 4307.8 0C4128.3 0 3948.7 0 3769.2 0C3589.7 0 3410.3 0 3230.8 0C3051.3 0 2871.7 0 2692.2 0C2512.7 0 2333.3 0 2153.8 0C1974.3 0 1794.7 0 1615.2 0C1435.7 0 1256.3 0 1076.8 0C897.3 0 717.7 0 538.2 0C358.7 0 179.3 0 89.7 0L0 0Z" fill="#b5dcff"></path><path d="M0 434L89.7 429.2C179.3 424.3 358.7 414.7 538.2 447.2C717.7 479.7 897.3 554.3 1076.8 568.5C1256.3 582.7 1435.7 536.3 1615.2 549.8C1794.7 563.3 1974.3 636.7 2153.8 622C2333.3 607.3 2512.7 504.7 2692.2 475.3C2871.7 446 3051.3 490 3230.8 494.7C3410.3 499.3 3589.7 464.7 3769.2 447.3C3948.7 430 4128.3 430 4307.8 422.8C4487.3 415.7 4666.7 401.3 4846.2 437.7C5025.7 474 5205.3 561 5384.8 571.3C5564.3 581.7 5743.7 515.3 5923.2 523C6102.7 530.7 6282.3 612.3 6461.8 641.3C6641.3 670.3 6820.7 646.7 6910.3 634.8L7000 623L7000 0L6910.3 0C6820.7 0 6641.3 0 6461.8 0C6282.3 0 6102.7 0 5923.2 0C5743.7 0 5564.3 0 5384.8 0C5205.3 0 5025.7 0 4846.2 0C4666.7 0 4487.3 0 4307.8 0C4128.3 0 3948.7 0 3769.2 0C3589.7 0 3410.3 0 3230.8 0C3051.3 0 2871.7 0 2692.2 0C2512.7 0 2333.3 0 2153.8 0C1974.3 0 1794.7 0 1615.2 0C1435.7 0 1256.3 0 1076.8 0C897.3 0 717.7 0 538.2 0C358.7 0 179.3 0 89.7 0L0 0Z" fill="#bfe1ff"></path><path d="M0 606L89.7 580C179.3 554 358.7 502 538.2 473.8C717.7 445.7 897.3 441.3 1076.8 455.2C1256.3 469 1435.7 501 1615.2 524C1794.7 547 1974.3 561 2153.8 582.3C2333.3 603.7 2512.7 632.3 2692.2 621.2C2871.7 610 3051.3 559 3230.8 515.3C3410.3 471.7 3589.7 435.3 3769.2 448.2C3948.7 461 4128.3 523 4307.8 538.3C4487.3 553.7 4666.7 522.3 4846.2 523C5025.7 523.7 5205.3 556.3 5384.8 586.3C5564.3 616.3 5743.7 643.7 5923.2 648C6102.7 652.3 6282.3 633.7 6461.8 594C6641.3 554.3 6820.7 493.7 6910.3 463.3L7000 433L7000 0L6910.3 0C6820.7 0 6641.3 0 6461.8 0C6282.3 0 6102.7 0 5923.2 0C5743.7 0 5564.3 0 5384.8 0C5205.3 0 5025.7 0 4846.2 0C4666.7 0 4487.3 0 4307.8 0C4128.3 0 3948.7 0 3769.2 0C3589.7 0 3410.3 0 3230.8 0C3051.3 0 2871.7 0 2692.2 0C2512.7 0 2333.3 0 2153.8 0C1974.3 0 1794.7 0 1615.2 0C1435.7 0 1256.3 0 1076.8 0C897.3 0 717.7 0 538.2 0C358.7 0 179.3 0 89.7 0L0 0Z" fill="#c9e5ff"></path><path d="M0 322L89.7 360.7C179.3 399.3 358.7 476.7 538.2 498.7C717.7 520.7 897.3 487.3 1076.8 444C1256.3 400.7 1435.7 347.3 1615.2 364.3C1794.7 381.3 1974.3 468.7 2153.8 481.7C2333.3 494.7 2512.7 433.3 2692.2 403C2871.7 372.7 3051.3 373.3 3230.8 366.7C3410.3 360 3589.7 346 3769.2 363.7C3948.7 381.3 4128.3 430.7 4307.8 450.5C4487.3 470.3 4666.7 460.7 4846.2 438.2C5025.7 415.7 5205.3 380.3 5384.8 377.7C5564.3 375 5743.7 405 5923.2 439.2C6102.7 473.3 6282.3 511.7 6461.8 489.3C6641.3 467 6820.7 384 6910.3 342.5L7000 301L7000 0L6910.3 0C6820.7 0 6641.3 0 6461.8 0C6282.3 0 6102.7 0 5923.2 0C5743.7 0 5564.3 0 5384.8 0C5205.3 0 5025.7 0 4846.2 0C4666.7 0 4487.3 0 4307.8 0C4128.3 0 3948.7 0 3769.2 0C3589.7 0 3410.3 0 3230.8 0C3051.3 0 2871.7 0 2692.2 0C2512.7 0 2333.3 0 2153.8 0C1974.3 0 1794.7 0 1615.2 0C1435.7 0 1256.3 0 1076.8 0C897.3 0 717.7 0 538.2 0C358.7 0 179.3 0 89.7 0L0 0Z" fill="#d2e9ff"></path><path d="M0 256L89.7 262.7C179.3 269.3 358.7 282.7 538.2 291.2C717.7 299.7 897.3 303.3 1076.8 293.5C1256.3 283.7 1435.7 260.3 1615.2 252C1794.7 243.7 1974.3 250.3 2153.8 290.3C2333.3 330.3 2512.7 403.7 2692.2 409.5C2871.7 415.3 3051.3 353.7 3230.8 363C3410.3 372.3 3589.7 452.7 3769.2 483.5C3948.7 514.3 4128.3 495.7 4307.8 460.2C4487.3 424.7 4666.7 372.3 4846.2 365.3C5025.7 358.3 5205.3 396.7 5384.8 412.7C5564.3 428.7 5743.7 422.3 5923.2 413.3C6102.7 404.3 6282.3 392.7 6461.8 383.3C6641.3 374 6820.7 367 6910.3 363.5L7000 360L7000 0L6910.3 0C6820.7 0 6641.3 0 6461.8 0C6282.3 0 6102.7 0 5923.2 0C5743.7 0 5564.3 0 5384.8 0C5205.3 0 5025.7 0 4846.2 0C4666.7 0 4487.3 0 4307.8 0C4128.3 0 3948.7 0 3769.2 0C3589.7 0 3410.3 0 3230.8 0C3051.3 0 2871.7 0 2692.2 0C2512.7 0 2333.3 0 2153.8 0C1974.3 0 1794.7 0 1615.2 0C1435.7 0 1256.3 0 1076.8 0C897.3 0 717.7 0 538.2 0C358.7 0 179.3 0 89.7 0L0 0Z" fill="#dbedff"></path><path d="M0 385L89.7 394.5C179.3 404 358.7 423 538.2 412.5C717.7 402 897.3 362 1076.8 340C1256.3 318 1435.7 314 1615.2 325.8C1794.7 337.7 1974.3 365.3 2153.8 360.8C2333.3 356.3 2512.7 319.7 2692.2 310.8C2871.7 302 3051.3 321 3230.8 312.3C3410.3 303.7 3589.7 267.3 3769.2 255.8C3948.7 244.3 4128.3 257.7 4307.8 268.3C4487.3 279 4666.7 287 4846.2 291C5025.7 295 5205.3 295 5384.8 303.3C5564.3 311.7 5743.7 328.3 5923.2 321C6102.7 313.7 6282.3 282.3 6461.8 291.2C6641.3 300 6820.7 349 6910.3 373.5L7000 398L7000 0L6910.3 0C6820.7 0 6641.3 0 6461.8 0C6282.3 0 6102.7 0 5923.2 0C5743.7 0 5564.3 0 5384.8 0C5205.3 0 5025.7 0 4846.2 0C4666.7 0 4487.3 0 4307.8 0C4128.3 0 3948.7 0 3769.2 0C3589.7 0 3410.3 0 3230.8 0C3051.3 0 2871.7 0 2692.2 0C2512.7 0 2333.3 0 2153.8 0C1974.3 0 1794.7 0 1615.2 0C1435.7 0 1256.3 0 1076.8 0C897.3 0 717.7 0 538.2 0C358.7 0 179.3 0 89.7 0L0 0Z" fill="#e4f2ff"></path><path d="M0 224L89.7 214.3C179.3 204.7 358.7 185.3 538.2 171C717.7 156.7 897.3 147.3 1076.8 152.5C1256.3 157.7 1435.7 177.3 1615.2 177C1794.7 176.7 1974.3 156.3 2153.8 172.5C2333.3 188.7 2512.7 241.3 2692.2 263.7C2871.7 286 3051.3 278 3230.8 267.5C3410.3 257 3589.7 244 3769.2 240.8C3948.7 237.7 4128.3 244.3 4307.8 251C4487.3 257.7 4666.7 264.3 4846.2 247.7C5025.7 231 5205.3 191 5384.8 167.7C5564.3 144.3 5743.7 137.7 5923.2 161.2C6102.7 184.7 6282.3 238.3 6461.8 259.2C6641.3 280 6820.7 268 6910.3 262L7000 256L7000 0L6910.3 0C6820.7 0 6641.3 0 6461.8 0C6282.3 0 6102.7 0 5923.2 0C5743.7 0 5564.3 0 5384.8 0C5205.3 0 5025.7 0 4846.2 0C4666.7 0 4487.3 0 4307.8 0C4128.3 0 3948.7 0 3769.2 0C3589.7 0 3410.3 0 3230.8 0C3051.3 0 2871.7 0 2692.2 0C2512.7 0 2333.3 0 2153.8 0C1974.3 0 1794.7 0 1615.2 0C1435.7 0 1256.3 0 1076.8 0C897.3 0 717.7 0 538.2 0C358.7 0 179.3 0 89.7 0L0 0Z" fill="#edf6ff"></path><path d="M0 170L89.7 155.2C179.3 140.3 358.7 110.7 538.2 103.8C717.7 97 897.3 113 1076.8 137C1256.3 161 1435.7 193 1615.2 214.2C1794.7 235.3 1974.3 245.7 2153.8 226C2333.3 206.3 2512.7 156.7 2692.2 148.3C2871.7 140 3051.3 173 3230.8 168.2C3410.3 163.3 3589.7 120.7 3769.2 127.2C3948.7 133.7 4128.3 189.3 4307.8 209.3C4487.3 229.3 4666.7 213.7 4846.2 187.8C5025.7 162 5205.3 126 5384.8 129.8C5564.3 133.7 5743.7 177.3 5923.2 183.7C6102.7 190 6282.3 159 6461.8 158.2C6641.3 157.3 6820.7 186.7 6910.3 201.3L7000 216L7000 0L6910.3 0C6820.7 0 6641.3 0 6461.8 0C6282.3 0 6102.7 0 5923.2 0C5743.7 0 5564.3 0 5384.8 0C5205.3 0 5025.7 0 4846.2 0C4666.7 0 4487.3 0 4307.8 0C4128.3 0 3948.7 0 3769.2 0C3589.7 0 3410.3 0 3230.8 0C3051.3 0 2871.7 0 2692.2 0C2512.7 0 2333.3 0 2153.8 0C1974.3 0 1794.7 0 1615.2 0C1435.7 0 1256.3 0 1076.8 0C897.3 0 717.7 0 538.2 0C358.7 0 179.3 0 89.7 0L0 0Z" fill="#f6fbff"></path><path d="M0 32L89.7 48.8C179.3 65.7 358.7 99.3 538.2 109.3C717.7 119.3 897.3 105.7 1076.8 106.2C1256.3 106.7 1435.7 121.3 1615.2 124.5C1794.7 127.7 1974.3 119.3 2153.8 121.2C2333.3 123 2512.7 135 2692.2 143C2871.7 151 3051.3 155 3230.8 145.8C3410.3 136.7 3589.7 114.3 3769.2 100.5C3948.7 86.7 4128.3 81.3 4307.8 84.5C4487.3 87.7 4666.7 99.3 4846.2 109.3C5025.7 119.3 5205.3 127.7 5384.8 132.7C5564.3 137.7 5743.7 139.3 5923.2 142.7C6102.7 146 6282.3 151 6461.8 140.7C6641.3 130.3 6820.7 104.7 6910.3 91.8L7000 79L7000 0L6910.3 0C6820.7 0 6641.3 0 6461.8 0C6282.3 0 6102.7 0 5923.2 0C5743.7 0 5564.3 0 5384.8 0C5205.3 0 5025.7 0 4846.2 0C4666.7 0 4487.3 0 4307.8 0C4128.3 0 3948.7 0 3769.2 0C3589.7 0 3410.3 0 3230.8 0C3051.3 0 2871.7 0 2692.2 0C2512.7 0 2333.3 0 2153.8 0C1974.3 0 1794.7 0 1615.2 0C1435.7 0 1256.3 0 1076.8 0C897.3 0 717.7 0 538.2 0C358.7 0 179.3 0 89.7 0L0 0Z" fill="#ffffff"></path></svg>