<svg id="visual" viewBox="0 0 7000 2600" width="7000" height="2600" xmlns="http://www.w3.org/2000/svg" xmlns:xlink="http://www.w3.org/1999/xlink" version="1.1"><rect x="0" y="0" width="7000" height="2600" fill="#001220"></rect><path d="M0 1182L129.7 1198.2C259.3 1214.3 518.7 1246.7 778 1227.7C1037.3 1208.7 1296.7 1138.3 1555.8 1134.2C1815 1130 2074 1192 2333.2 1232.5C2592.3 1273 2851.7 1292 3111 1260.2C3370.3 1228.3 3629.7 1145.7 3889 1115C4148.3 1084.3 4407.7 1105.7 4666.8 1138.5C4926 1171.3 5185 1215.7 5444.2 1166C5703.3 1116.3 5962.7 972.7 6222 908.2C6481.3 843.7 6740.7 858.3 6870.3 865.7L7000 873L7000 0L6870.3 0C6740.7 0 6481.3 0 6222 0C5962.7 0 5703.3 0 5444.2 0C5185 0 4926 0 4666.8 0C4407.7 0 4148.3 0 3889 0C3629.7 0 3370.3 0 3111 0C2851.7 0 2592.3 0 2333.2 0C2074 0 1815 0 1555.8 0C1296.7 0 1037.3 0 778 0C518.7 0 259.3 0 129.7 0L0 0Z" fill="#8573ff"></path><path d="M0 846L129.7 888.2C259.3 930.3 518.7 1014.7 778 1078.3C1037.3 1142 1296.7 1185 1555.8 1181.3C1815 1177.7 2074 1127.3 2333.2 1053.5C2592.3 979.7 2851.7 882.3 3111 851.8C3370.3 821.3 3629.7 857.7 3889 848.5C4148.3 839.3 4407.7 784.7 4666.8 757.2C4926 729.7 5185 729.3 5444.2 737.2C5703.3 745 5962.7 761 6222 826.7C6481.3 892.3 6740.7 1007.7 6870.3 1065.3L7000 1123L7000 0L6870.3 0C6740.7 0 6481.3 0 6222 0C5962.7 0 5703.3 0 5444.2 0C5185 0 4926 0 4666.8 0C4407.7 0 4148.3 0 3889 0C3629.7 0 3370.3 0 3111 0C2851.7 0 2592.3 0 2333.2 0C2074 0 1815 0 1555.8 0C1296.7 0 1037.3 0 778 0C518.7 0 259.3 0 129.7 0L0 0Z" fill="#9884ff"></path><path d="M0 764L129.7 808.5C259.3 853 518.7 942 778 937.7C1037.3 933.3 1296.7 835.7 1555.8 770.2C1815 704.7 2074 671.3 2333.2 726.3C2592.3 781.3 2851.7 924.7 3111 928.5C3370.3 932.3 3629.7 796.7 3889 742.7C4148.3 688.7 4407.7 716.3 4666.8 710.8C4926 705.3 5185 666.7 5444.2 665C5703.3 663.3 5962.7 698.7 6222 737C6481.3 775.3 6740.7 816.7 6870.3 837.3L7000 858L7000 0L6870.3 0C6740.7 0 6481.3 0 6222 0C5962.7 0 5703.3 0 5444.2 0C5185 0 4926 0 4666.8 0C4407.7 0 4148.3 0 3889 0C3629.7 0 3370.3 0 3111 0C2851.7 0 2592.3 0 2333.2 0C2074 0 1815 0 1555.8 0C1296.7 0 1037.3 0 778 0C518.7 0 259.3 0 129.7 0L0 0Z" fill="#aa95ff"></path><path d="M0 712L129.7 739.8C259.3 767.7 518.7 823.3 778 832.7C1037.3 842 1296.7 805 1555.8 751.2C1815 697.3 2074 626.7 2333.2 610.7C2592.3 594.7 2851.7 633.3 3111 668C3370.3 702.7 3629.7 733.3 3889 715.8C4148.3 698.3 4407.7 632.7 4666.8 597.3C4926 562 5185 557 5444.2 609.2C5703.3 661.3 5962.7 770.7 6222 810.3C6481.3 850 6740.7 820 6870.3 805L7000 790L7000 0L6870.3 0C6740.7 0 6481.3 0 6222 0C5962.7 0 5703.3 0 5444.2 0C5185 0 4926 0 4666.8 0C4407.7 0 4148.3 0 3889 0C3629.7 0 3370.3 0 3111 0C2851.7 0 2592.3 0 2333.2 0C2074 0 1815 0 1555.8 0C1296.7 0 1037.3 0 778 0C518.7 0 259.3 0 129.7 0L0 0Z" fill="#baa6ff"></path><path d="M0 650L129.7 629.3C259.3 608.7 518.7 567.3 778 569.8C1037.3 572.3 1296.7 618.7 1555.8 611.2C1815 603.7 2074 542.3 2333.2 518.2C2592.3 494 2851.7 507 3111 523.7C3370.3 540.3 3629.7 560.7 3889 602.5C4148.3 644.3 4407.7 707.7 4666.8 727.7C4926 747.7 5185 724.3 5444.2 678C5703.3 631.7 5962.7 562.3 6222 565.8C6481.3 569.3 6740.7 645.7 6870.3 683.8L7000 722L7000 0L6870.3 0C6740.7 0 6481.3 0 6222 0C5962.7 0 5703.3 0 5444.2 0C5185 0 4926 0 4666.8 0C4407.7 0 4148.3 0 3889 0C3629.7 0 3370.3 0 3111 0C2851.7 0 2592.3 0 2333.2 0C2074 0 1815 0 1555.8 0C1296.7 0 1037.3 0 778 0C518.7 0 259.3 0 129.7 0L0 0Z" fill="#c9b7ff"></path><path d="M0 562L129.7 528.2C259.3 494.3 518.7 426.7 778 424.5C1037.3 422.3 1296.7 485.7 1555.8 499.7C1815 513.7 2074 478.3 2333.2 448.5C2592.3 418.7 2851.7 394.3 3111 430.5C3370.3 466.7 3629.7 563.3 3889 589.3C4148.3 615.3 4407.7 570.7 4666.8 543.3C4926 516 5185 506 5444.2 509.5C5703.3 513 5962.7 530 6222 534.7C6481.3 539.3 6740.7 531.7 6870.3 527.8L7000 524L7000 0L6870.3 0C6740.7 0 6481.3 0 6222 0C5962.7 0 5703.3 0 5444.2 0C5185 0 4926 0 4666.8 0C4407.7 0 4148.3 0 3889 0C3629.7 0 3370.3 0 3111 0C2851.7 0 2592.3 0 2333.2 0C2074 0 1815 0 1555.8 0C1296.7 0 1037.3 0 778 0C518.7 0 259.3 0 129.7 0L0 0Z" fill="#d7c9ff"></path><path d="M0 351L129.7 351.3C259.3 351.7 518.7 352.3 778 376.2C1037.3 400 1296.7 447 1555.8 447.7C1815 448.3 2074 402.7 2333.2 378.2C2592.3 353.7 2851.7 350.3 3111 362.7C3370.3 375 3629.7 403 3889 422.8C4148.3 442.7 4407.7 454.3 4666.8 430.5C4926 406.7 5185 347.3 5444.2 322.7C5703.3 298 5962.7 308 6222 331.8C6481.3 355.7 6740.7 393.3 6870.3 412.2L7000 431L7000 0L6870.3 0C6740.7 0 6481.3 0 6222 0C5962.7 0 5703.3 0 5444.2 0C5185 0 4926 0 4666.8 0C4407.7 0 4148.3 0 3889 0C3629.7 0 3370.3 0 3111 0C2851.7 0 2592.3 0 2333.2 0C2074 0 1815 0 1555.8 0C1296.7 0 1037.3 0 778 0C518.7 0 259.3 0 129.7 0L0 0Z" fill="#e5dbff"></path><path d="M0 192L129.7 205C259.3 218 518.7 244 778 270.7C1037.3 297.3 1296.7 324.7 1555.8 338C1815 351.3 2074 350.7 2333.2 342.5C2592.3 334.3 2851.7 318.7 3111 306C3370.3 293.3 3629.7 283.7 3889 282.8C4148.3 282 4407.7 290 4666.8 281C4926 272 5185 246 5444.2 245.3C5703.3 244.7 5962.7 269.3 6222 269.7C6481.3 270 6740.7 246 6870.3 234L7000 222L7000 0L6870.3 0C6740.7 0 6481.3 0 6222 0C5962.7 0 5703.3 0 5444.2 0C5185 0 4926 0 4666.8 0C4407.7 0 4148.3 0 3889 0C3629.7 0 3370.3 0 3111 0C2851.7 0 2592.3 0 2333.2 0C2074 0 1815 0 1555.8 0C1296.7 0 1037.3 0 778 0C518.7 0 259.3 0 129.7 0L0 0Z" fill="#f2edff"></path><path d="M0 96L129.7 94.3C259.3 92.7 518.7 89.3 778 106.5C1037.3 123.7 1296.7 161.3 1555.8 175.2C1815 189 2074 179 2333.2 164.3C2592.3 149.7 2851.7 130.3 3111 133C3370.3 135.7 3629.7 160.3 3889 182.2C4148.3 204 4407.7 223 4666.8 209C4926 195 5185 148 5444.2 141C5703.3 134 5962.7 167 6222 169.7C6481.3 172.3 6740.7 144.7 6870.3 130.8L7000 117L7000 0L6870.3 0C6740.7 0 6481.3 0 6222 0C5962.7 0 5703.3 0 5444.2 0C5185 0 4926 0 4666.8 0C4407.7 0 4148.3 0 3889 0C3629.7 0 3370.3 0 3111 0C2851.7 0 2592.3 0 2333.2 0C2074 0 1815 0 1555.8 0C1296.7 0 1037.3 0 778 0C518.7 0 259.3 0 129.7 0L0 0Z" fill="#ffffff"></path></svg>