<svg id="visual" viewBox="0 0 7000 1600" width="7000" height="1600" xmlns="http://www.w3.org/2000/svg" xmlns:xlink="http://www.w3.org/1999/xlink" version="1.1"><rect x="0" y="0" width="7000" height="1600" fill="#001220"></rect><path d="M0 1107L77.8 1126.2C155.7 1145.3 311.3 1183.7 466.8 1179.5C622.3 1175.3 777.7 1128.7 933.2 1122.7C1088.7 1116.7 1244.3 1151.3 1400 1189.8C1555.7 1228.3 1711.3 1270.7 1866.8 1222.5C2022.3 1174.3 2177.7 1035.7 2333.2 977.7C2488.7 919.7 2644.3 942.3 2800 963C2955.7 983.7 3111.3 1002.3 3266.8 987.8C3422.3 973.3 3577.7 925.7 3733.2 961.3C3888.7 997 4044.3 1116 4200 1186.5C4355.7 1257 4511.3 1279 4666.8 1257C4822.3 1235 4977.7 1169 5133.2 1089C5288.7 1009 5444.3 915 5600 873.3C5755.7 831.7 5911.3 842.3 6066.8 902.3C6222.3 962.3 6377.7 1071.7 6533.2 1145.5C6688.7 1219.3 6844.3 1257.7 6922.2 1276.8L7000 1296L7000 1601L6922.2 1601C6844.3 1601 6688.7 1601 6533.2 1601C6377.7 1601 6222.3 1601 6066.8 1601C5911.3 1601 5755.7 1601 5600 1601C5444.3 1601 5288.7 1601 5133.2 1601C4977.7 1601 4822.3 1601 4666.8 1601C4511.3 1601 4355.7 1601 4200 1601C4044.3 1601 3888.7 1601 3733.2 1601C3577.7 1601 3422.3 1601 3266.8 1601C3111.3 1601 2955.7 1601 2800 1601C2644.3 1601 2488.7 1601 2333.2 1601C2177.7 1601 2022.3 1601 1866.8 1601C1711.3 1601 1555.7 1601 1400 1601C1244.3 1601 1088.7 1601 933.2 1601C777.7 1601 622.3 1601 466.8 1601C311.3 1601 155.7 1601 77.8 1601L0 1601Z" fill="#bce1ff"></path><path d="M0 1028L77.8 1056.5C155.7 1085 311.3 1142 466.8 1181.3C622.3 1220.7 777.7 1242.3 933.2 1240.8C1088.7 1239.3 1244.3 1214.7 1400 1185.3C1555.7 1156 1711.3 1122 1866.8 1128.3C2022.3 1134.7 2177.7 1181.3 2333.2 1203.2C2488.7 1225 2644.3 1222 2800 1192.8C2955.7 1163.7 3111.3 1108.3 3266.8 1087.3C3422.3 1066.3 3577.7 1079.7 3733.2 1077.3C3888.7 1075 4044.3 1057 4200 1051C4355.7 1045 4511.3 1051 4666.8 1038.7C4822.3 1026.3 4977.7 995.7 5133.2 981.3C5288.7 967 5444.3 969 5600 1008.2C5755.7 1047.3 5911.3 1123.7 6066.8 1124.2C6222.3 1124.7 6377.7 1049.3 6533.2 1016.7C6688.7 984 6844.3 994 6922.2 999L7000 1004L7000 1601L6922.2 1601C6844.3 1601 6688.7 1601 6533.2 1601C6377.7 1601 6222.3 1601 6066.8 1601C5911.3 1601 5755.7 1601 5600 1601C5444.3 1601 5288.7 1601 5133.2 1601C4977.7 1601 4822.3 1601 4666.8 1601C4511.3 1601 4355.7 1601 4200 1601C4044.3 1601 3888.7 1601 3733.2 1601C3577.7 1601 3422.3 1601 3266.8 1601C3111.3 1601 2955.7 1601 2800 1601C2644.3 1601 2488.7 1601 2333.2 1601C2177.7 1601 2022.3 1601 1866.8 1601C1711.3 1601 1555.7 1601 1400 1601C1244.3 1601 1088.7 1601 933.2 1601C777.7 1601 622.3 1601 466.8 1601C311.3 1601 155.7 1601 77.8 1601L0 1601Z" fill="#d1e2ff"></path><path d="M0 1093L77.8 1115.5C155.7 1138 311.3 1183 466.8 1167C622.3 1151 777.7 1074 933.2 1046.7C1088.7 1019.3 1244.3 1041.7 1400 1036.3C1555.7 1031 1711.3 998 1866.8 979.5C2022.3 961 2177.7 957 2333.2 1014.3C2488.7 1071.7 2644.3 1190.3 2800 1217.5C2955.7 1244.7 3111.3 1180.3 3266.8 1120.5C3422.3 1060.7 3577.7 1005.3 3733.2 993.7C3888.7 982 4044.3 1014 4200 1041C4355.7 1068 4511.3 1090 4666.8 1134.8C4822.3 1179.7 4977.7 1247.3 5133.2 1226C5288.7 1204.7 5444.3 1094.3 5600 1073.7C5755.7 1053 5911.3 1122 6066.8 1124C6222.3 1126 6377.7 1061 6533.2 1031.3C6688.7 1001.7 6844.3 1007.3 6922.2 1010.2L7000 1013L7000 1601L6922.2 1601C6844.3 1601 6688.7 1601 6533.2 1601C6377.7 1601 6222.3 1601 6066.8 1601C5911.3 1601 5755.7 1601 5600 1601C5444.3 1601 5288.7 1601 5133.2 1601C4977.7 1601 4822.3 1601 4666.8 1601C4511.3 1601 4355.7 1601 4200 1601C4044.3 1601 3888.7 1601 3733.2 1601C3577.7 1601 3422.3 1601 3266.8 1601C3111.3 1601 2955.7 1601 2800 1601C2644.3 1601 2488.7 1601 2333.2 1601C2177.7 1601 2022.3 1601 1866.8 1601C1711.3 1601 1555.7 1601 1400 1601C1244.3 1601 1088.7 1601 933.2 1601C777.7 1601 622.3 1601 466.8 1601C311.3 1601 155.7 1601 77.8 1601L0 1601Z" fill="#e3e4ff"></path><path d="M0 1188L77.8 1204.8C155.7 1221.7 311.3 1255.3 466.8 1234.2C622.3 1213 777.7 1137 933.2 1098.3C1088.7 1059.7 1244.3 1058.3 1400 1110C1555.7 1161.7 1711.3 1266.3 1866.8 1309.2C2022.3 1352 2177.7 1333 2333.2 1307.8C2488.7 1282.7 2644.3 1251.3 2800 1260C2955.7 1268.7 3111.3 1317.3 3266.8 1297.7C3422.3 1278 3577.7 1190 3733.2 1188.7C3888.7 1187.3 4044.3 1272.7 4200 1284.5C4355.7 1296.3 4511.3 1234.7 4666.8 1188.8C4822.3 1143 4977.7 1113 5133.2 1112.3C5288.7 1111.7 5444.3 1140.3 5600 1150C5755.7 1159.7 5911.3 1150.3 6066.8 1131.7C6222.3 1113 6377.7 1085 6533.2 1090.5C6688.7 1096 6844.3 1135 6922.2 1154.5L7000 1174L7000 1601L6922.2 1601C6844.3 1601 6688.7 1601 6533.2 1601C6377.7 1601 6222.3 1601 6066.8 1601C5911.3 1601 5755.7 1601 5600 1601C5444.3 1601 5288.7 1601 5133.2 1601C4977.7 1601 4822.3 1601 4666.8 1601C4511.3 1601 4355.7 1601 4200 1601C4044.3 1601 3888.7 1601 3733.2 1601C3577.7 1601 3422.3 1601 3266.8 1601C3111.3 1601 2955.7 1601 2800 1601C2644.3 1601 2488.7 1601 2333.2 1601C2177.7 1601 2022.3 1601 1866.8 1601C1711.3 1601 1555.7 1601 1400 1601C1244.3 1601 1088.7 1601 933.2 1601C777.7 1601 622.3 1601 466.8 1601C311.3 1601 155.7 1601 77.8 1601L0 1601Z" fill="#f0e7fc"></path><path d="M0 1244L77.8 1239.5C155.7 1235 311.3 1226 466.8 1236.8C622.3 1247.7 777.7 1278.3 933.2 1274.2C1088.7 1270 1244.3 1231 1400 1223C1555.7 1215 1711.3 1238 1866.8 1231.7C2022.3 1225.3 2177.7 1189.7 2333.2 1207.8C2488.7 1226 2644.3 1298 2800 1323.2C2955.7 1348.3 3111.3 1326.7 3266.8 1309.8C3422.3 1293 3577.7 1281 3733.2 1255.5C3888.7 1230 4044.3 1191 4200 1201.8C4355.7 1212.7 4511.3 1273.3 4666.8 1275.7C4822.3 1278 4977.7 1222 5133.2 1217.3C5288.7 1212.7 5444.3 1259.3 5600 1255.3C5755.7 1251.3 5911.3 1196.7 6066.8 1189.3C6222.3 1182 6377.7 1222 6533.2 1244.2C6688.7 1266.3 6844.3 1270.7 6922.2 1272.8L7000 1275L7000 1601L6922.2 1601C6844.3 1601 6688.7 1601 6533.2 1601C6377.7 1601 6222.3 1601 6066.8 1601C5911.3 1601 5755.7 1601 5600 1601C5444.3 1601 5288.7 1601 5133.2 1601C4977.7 1601 4822.3 1601 4666.8 1601C4511.3 1601 4355.7 1601 4200 1601C4044.3 1601 3888.7 1601 3733.2 1601C3577.7 1601 3422.3 1601 3266.8 1601C3111.3 1601 2955.7 1601 2800 1601C2644.3 1601 2488.7 1601 2333.2 1601C2177.7 1601 2022.3 1601 1866.8 1601C1711.3 1601 1555.7 1601 1400 1601C1244.3 1601 1088.7 1601 933.2 1601C777.7 1601 622.3 1601 466.8 1601C311.3 1601 155.7 1601 77.8 1601L0 1601Z" fill="#f9ebf9"></path><path d="M0 1290L77.8 1299.7C155.7 1309.3 311.3 1328.7 466.8 1335C622.3 1341.3 777.7 1334.7 933.2 1319.5C1088.7 1304.3 1244.3 1280.7 1400 1270.5C1555.7 1260.3 1711.3 1263.7 1866.8 1284.8C2022.3 1306 2177.7 1345 2333.2 1350.2C2488.7 1355.3 2644.3 1326.7 2800 1306.2C2955.7 1285.7 3111.3 1273.3 3266.8 1279.7C3422.3 1286 3577.7 1311 3733.2 1310.5C3888.7 1310 4044.3 1284 4200 1292.2C4355.7 1300.3 4511.3 1342.7 4666.8 1340.7C4822.3 1338.7 4977.7 1292.3 5133.2 1303.8C5288.7 1315.3 5444.3 1384.7 5600 1391.3C5755.7 1398 5911.3 1342 6066.8 1335C6222.3 1328 6377.7 1370 6533.2 1364.5C6688.7 1359 6844.3 1306 6922.2 1279.5L7000 1253L7000 1601L6922.2 1601C6844.3 1601 6688.7 1601 6533.2 1601C6377.7 1601 6222.3 1601 6066.8 1601C5911.3 1601 5755.7 1601 5600 1601C5444.3 1601 5288.7 1601 5133.2 1601C4977.7 1601 4822.3 1601 4666.8 1601C4511.3 1601 4355.7 1601 4200 1601C4044.3 1601 3888.7 1601 3733.2 1601C3577.7 1601 3422.3 1601 3266.8 1601C3111.3 1601 2955.7 1601 2800 1601C2644.3 1601 2488.7 1601 2333.2 1601C2177.7 1601 2022.3 1601 1866.8 1601C1711.3 1601 1555.7 1601 1400 1601C1244.3 1601 1088.7 1601 933.2 1601C777.7 1601 622.3 1601 466.8 1601C311.3 1601 155.7 1601 77.8 1601L0 1601Z" fill="#fef1f8"></path><path d="M0 1378L77.8 1395.7C155.7 1413.3 311.3 1448.7 466.8 1446.7C622.3 1444.7 777.7 1405.3 933.2 1391.2C1088.7 1377 1244.3 1388 1400 1398C1555.7 1408 1711.3 1417 1866.8 1408.8C2022.3 1400.7 2177.7 1375.3 2333.2 1366.8C2488.7 1358.3 2644.3 1366.7 2800 1384.2C2955.7 1401.7 3111.3 1428.3 3266.8 1439.2C3422.3 1450 3577.7 1445 3733.2 1451.5C3888.7 1458 4044.3 1476 4200 1489.8C4355.7 1503.7 4511.3 1513.3 4666.8 1505.5C4822.3 1497.7 4977.7 1472.3 5133.2 1458.3C5288.7 1444.3 5444.3 1441.7 5600 1425.5C5755.7 1409.3 5911.3 1379.7 6066.8 1373.2C6222.3 1366.7 6377.7 1383.3 6533.2 1380.8C6688.7 1378.3 6844.3 1356.7 6922.2 1345.8L7000 1335L7000 1601L6922.2 1601C6844.3 1601 6688.7 1601 6533.2 1601C6377.7 1601 6222.3 1601 6066.8 1601C5911.3 1601 5755.7 1601 5600 1601C5444.3 1601 5288.7 1601 5133.2 1601C4977.7 1601 4822.3 1601 4666.8 1601C4511.3 1601 4355.7 1601 4200 1601C4044.3 1601 3888.7 1601 3733.2 1601C3577.7 1601 3422.3 1601 3266.8 1601C3111.3 1601 2955.7 1601 2800 1601C2644.3 1601 2488.7 1601 2333.2 1601C2177.7 1601 2022.3 1601 1866.8 1601C1711.3 1601 1555.7 1601 1400 1601C1244.3 1601 1088.7 1601 933.2 1601C777.7 1601 622.3 1601 466.8 1601C311.3 1601 155.7 1601 77.8 1601L0 1601Z" fill="#fff7f9"></path><path d="M0 1557L77.8 1556.8C155.7 1556.7 311.3 1556.3 466.8 1549.3C622.3 1542.3 777.7 1528.7 933.2 1507.8C1088.7 1487 1244.3 1459 1400 1444.8C1555.7 1430.7 1711.3 1430.3 1866.8 1439.3C2022.3 1448.3 2177.7 1466.7 2333.2 1482.2C2488.7 1497.7 2644.3 1510.3 2800 1503C2955.7 1495.7 3111.3 1468.3 3266.8 1467C3422.3 1465.7 3577.7 1490.3 3733.2 1493C3888.7 1495.7 4044.3 1476.3 4200 1478.3C4355.7 1480.3 4511.3 1503.7 4666.8 1511.7C4822.3 1519.7 4977.7 1512.3 5133.2 1517C5288.7 1521.7 5444.3 1538.3 5600 1537.5C5755.7 1536.7 5911.3 1518.3 6066.8 1508.2C6222.3 1498 6377.7 1496 6533.2 1498.7C6688.7 1501.3 6844.3 1508.7 6922.2 1512.3L7000 1516L7000 1601L6922.2 1601C6844.3 1601 6688.7 1601 6533.2 1601C6377.7 1601 6222.3 1601 6066.8 1601C5911.3 1601 5755.7 1601 5600 1601C5444.3 1601 5288.7 1601 5133.2 1601C4977.7 1601 4822.3 1601 4666.8 1601C4511.3 1601 4355.7 1601 4200 1601C4044.3 1601 3888.7 1601 3733.2 1601C3577.7 1601 3422.3 1601 3266.8 1601C3111.3 1601 2955.7 1601 2800 1601C2644.3 1601 2488.7 1601 2333.2 1601C2177.7 1601 2022.3 1601 1866.8 1601C1711.3 1601 1555.7 1601 1400 1601C1244.3 1601 1088.7 1601 933.2 1601C777.7 1601 622.3 1601 466.8 1601C311.3 1601 155.7 1601 77.8 1601L0 1601Z" fill="#fffefe"></path></svg>