<svg id="visual" viewBox="0 0 2000 150" width="2000" height="150" xmlns="http://www.w3.org/2000/svg" xmlns:xlink="http://www.w3.org/1999/xlink" version="1.1"><rect x="0" y="0" width="2000" height="150" fill="#001220"></rect><path d="M0 31L23.8 33.2C47.7 35.3 95.3 39.7 143 37.5C190.7 35.3 238.3 26.7 286 26.8C333.7 27 381.3 36 428.8 38.8C476.3 41.7 523.7 38.3 571.2 37.2C618.7 36 666.3 37 714 38.5C761.7 40 809.3 42 857 39.5C904.7 37 952.3 30 1000 28.3C1047.7 26.7 1095.3 30.3 1143 30C1190.7 29.7 1238.3 25.3 1286 24.7C1333.7 24 1381.3 27 1428.8 30.8C1476.3 34.7 1523.7 39.3 1571.2 39.2C1618.7 39 1666.3 34 1714 34.7C1761.7 35.3 1809.3 41.7 1857 43.5C1904.7 45.3 1952.3 42.7 1976.2 41.3L2000 40L2000 0L1976.2 0C1952.3 0 1904.7 0 1857 0C1809.3 0 1761.7 0 1714 0C1666.3 0 1618.7 0 1571.2 0C1523.7 0 1476.3 0 1428.8 0C1381.3 0 1333.7 0 1286 0C1238.3 0 1190.7 0 1143 0C1095.3 0 1047.7 0 1000 0C952.3 0 904.7 0 857 0C809.3 0 761.7 0 714 0C666.3 0 618.7 0 571.2 0C523.7 0 476.3 0 428.8 0C381.3 0 333.7 0 286 0C238.3 0 190.7 0 143 0C95.3 0 47.7 0 23.8 0L0 0Z" fill="#def0ff"></path><path d="M0 34L23.8 32.5C47.7 31 95.3 28 143 26.8C190.7 25.7 238.3 26.3 286 28C333.7 29.7 381.3 32.3 428.8 34.7C476.3 37 523.7 39 571.2 39.2C618.7 39.3 666.3 37.7 714 33.8C761.7 30 809.3 24 857 22.2C904.7 20.3 952.3 22.7 1000 24.3C1047.7 26 1095.3 27 1143 27.8C1190.7 28.7 1238.3 29.3 1286 27.5C1333.7 25.7 1381.3 21.3 1428.8 19.3C1476.3 17.3 1523.7 17.7 1571.2 18.2C1618.7 18.7 1666.3 19.3 1714 19.3C1761.7 19.3 1809.3 18.7 1857 20.2C1904.7 21.7 1952.3 25.3 1976.2 27.2L2000 29L2000 0L1976.2 0C1952.3 0 1904.7 0 1857 0C1809.3 0 1761.7 0 1714 0C1666.3 0 1618.7 0 1571.2 0C1523.7 0 1476.3 0 1428.8 0C1381.3 0 1333.7 0 1286 0C1238.3 0 1190.7 0 1143 0C1095.3 0 1047.7 0 1000 0C952.3 0 904.7 0 857 0C809.3 0 761.7 0 714 0C666.3 0 618.7 0 571.2 0C523.7 0 476.3 0 428.8 0C381.3 0 333.7 0 286 0C238.3 0 190.7 0 143 0C95.3 0 47.7 0 23.8 0L0 0Z" fill="#bedfff"></path><path d="M0 15L23.8 15.3C47.7 15.7 95.3 16.3 143 20C190.7 23.7 238.3 30.3 286 31.8C333.7 33.3 381.3 29.7 428.8 29.7C476.3 29.7 523.7 33.3 571.2 34C618.7 34.7 666.3 32.3 714 28.8C761.7 25.3 809.3 20.7 857 19.2C904.7 17.7 952.3 19.3 1000 20.7C1047.7 22 1095.3 23 1143 22.3C1190.7 21.7 1238.3 19.3 1286 20.2C1333.7 21 1381.3 25 1428.8 26C1476.3 27 1523.7 25 1571.2 25.5C1618.7 26 1666.3 29 1714 30.8C1761.7 32.7 1809.3 33.3 1857 31.7C1904.7 30 1952.3 26 1976.2 24L2000 22L2000 0L1976.2 0C1952.3 0 1904.7 0 1857 0C1809.3 0 1761.7 0 1714 0C1666.3 0 1618.7 0 1571.2 0C1523.7 0 1476.3 0 1428.8 0C1381.3 0 1333.7 0 1286 0C1238.3 0 1190.7 0 1143 0C1095.3 0 1047.7 0 1000 0C952.3 0 904.7 0 857 0C809.3 0 761.7 0 714 0C666.3 0 618.7 0 571.2 0C523.7 0 476.3 0 428.8 0C381.3 0 333.7 0 286 0C238.3 0 190.7 0 143 0C95.3 0 47.7 0 23.8 0L0 0Z" fill="#a0cdff"></path><path d="M0 15L23.8 14.5C47.7 14 95.3 13 143 14.7C190.7 16.3 238.3 20.7 286 22.7C333.7 24.7 381.3 24.3 428.8 24.7C476.3 25 523.7 26 571.2 26.5C618.7 27 666.3 27 714 26.5C761.7 26 809.3 25 857 24.8C904.7 24.7 952.3 25.3 1000 25.2C1047.7 25 1095.3 24 1143 22.2C1190.7 20.3 1238.3 17.7 1286 17.2C1333.7 16.7 1381.3 18.3 1428.8 19.3C1476.3 20.3 1523.7 20.7 1571.2 22C1618.7 23.3 1666.3 25.7 1714 26.7C1761.7 27.7 1809.3 27.3 1857 25.3C1904.7 23.3 1952.3 19.7 1976.2 17.8L2000 16L2000 0L1976.2 0C1952.3 0 1904.7 0 1857 0C1809.3 0 1761.7 0 1714 0C1666.3 0 1618.7 0 1571.2 0C1523.7 0 1476.3 0 1428.8 0C1381.3 0 1333.7 0 1286 0C1238.3 0 1190.7 0 1143 0C1095.3 0 1047.7 0 1000 0C952.3 0 904.7 0 857 0C809.3 0 761.7 0 714 0C666.3 0 618.7 0 571.2 0C523.7 0 476.3 0 428.8 0C381.3 0 333.7 0 286 0C238.3 0 190.7 0 143 0C95.3 0 47.7 0 23.8 0L0 0Z" fill="#86baff"></path><path d="M0 15L23.8 14.2C47.7 13.3 95.3 11.7 143 11.3C190.7 11 238.3 12 286 13.2C333.7 14.3 381.3 15.7 428.8 17.2C476.3 18.7 523.7 20.3 571.2 20.3C618.7 20.3 666.3 18.7 714 19.2C761.7 19.7 809.3 22.3 857 21.8C904.7 21.3 952.3 17.7 1000 17.2C1047.7 16.7 1095.3 19.3 1143 20.5C1190.7 21.7 1238.3 21.3 1286 21.3C1333.7 21.3 1381.3 21.7 1428.8 21.3C1476.3 21 1523.7 20 1571.2 18C1618.7 16 1666.3 13 1714 11.8C1761.7 10.7 1809.3 11.3 1857 12.2C1904.7 13 1952.3 14 1976.2 14.5L2000 15L2000 0L1976.2 0C1952.3 0 1904.7 0 1857 0C1809.3 0 1761.7 0 1714 0C1666.3 0 1618.7 0 1571.2 0C1523.7 0 1476.3 0 1428.8 0C1381.3 0 1333.7 0 1286 0C1238.3 0 1190.7 0 1143 0C1095.3 0 1047.7 0 1000 0C952.3 0 904.7 0 857 0C809.3 0 761.7 0 714 0C666.3 0 618.7 0 571.2 0C523.7 0 476.3 0 428.8 0C381.3 0 333.7 0 286 0C238.3 0 190.7 0 143 0C95.3 0 47.7 0 23.8 0L0 0Z" fill="#71a6ff"></path><path d="M0 8L23.8 8.7C47.7 9.3 95.3 10.7 143 10.5C190.7 10.3 238.3 8.7 286 8.2C333.7 7.7 381.3 8.3 428.8 9.3C476.3 10.3 523.7 11.7 571.2 11.7C618.7 11.7 666.3 10.3 714 9.8C761.7 9.3 809.3 9.7 857 11.5C904.7 13.3 952.3 16.7 1000 18C1047.7 19.3 1095.3 18.7 1143 18.7C1190.7 18.7 1238.3 19.3 1286 19.5C1333.7 19.7 1381.3 19.3 1428.8 19C1476.3 18.7 1523.7 18.3 1571.2 17.7C1618.7 17 1666.3 16 1714 16C1761.7 16 1809.3 17 1857 16C1904.7 15 1952.3 12 1976.2 10.5L2000 9L2000 0L1976.2 0C1952.3 0 1904.7 0 1857 0C1809.3 0 1761.7 0 1714 0C1666.3 0 1618.7 0 1571.2 0C1523.7 0 1476.3 0 1428.8 0C1381.3 0 1333.7 0 1286 0C1238.3 0 1190.7 0 1143 0C1095.3 0 1047.7 0 1000 0C952.3 0 904.7 0 857 0C809.3 0 761.7 0 714 0C666.3 0 618.7 0 571.2 0C523.7 0 476.3 0 428.8 0C381.3 0 333.7 0 286 0C238.3 0 190.7 0 143 0C95.3 0 47.7 0 23.8 0L0 0Z" fill="#6690ff"></path><path d="M0 7L23.8 7C47.7 7 95.3 7 143 6.7C190.7 6.3 238.3 5.7 286 5.5C333.7 5.3 381.3 5.7 428.8 6.5C476.3 7.3 523.7 8.7 571.2 8.5C618.7 8.3 666.3 6.7 714 7C761.7 7.3 809.3 9.7 857 11.2C904.7 12.7 952.3 13.3 1000 13.7C1047.7 14 1095.3 14 1143 12.8C1190.7 11.7 1238.3 9.3 1286 7.8C1333.7 6.3 1381.3 5.7 1428.8 6.3C1476.3 7 1523.7 9 1571.2 10.7C1618.7 12.3 1666.3 13.7 1714 13.7C1761.7 13.7 1809.3 12.3 1857 11C1904.7 9.7 1952.3 8.3 1976.2 7.7L2000 7L2000 0L1976.2 0C1952.3 0 1904.7 0 1857 0C1809.3 0 1761.7 0 1714 0C1666.3 0 1618.7 0 1571.2 0C1523.7 0 1476.3 0 1428.8 0C1381.3 0 1333.7 0 1286 0C1238.3 0 1190.7 0 1143 0C1095.3 0 1047.7 0 1000 0C952.3 0 904.7 0 857 0C809.3 0 761.7 0 714 0C666.3 0 618.7 0 571.2 0C523.7 0 476.3 0 428.8 0C381.3 0 333.7 0 286 0C238.3 0 190.7 0 143 0C95.3 0 47.7 0 23.8 0L0 0Z" fill="#6679fb"></path><path d="M0 4L23.8 4.8C47.7 5.7 95.3 7.3 143 7.5C190.7 7.7 238.3 6.3 286 6.2C333.7 6 381.3 7 428.8 7.3C476.3 7.7 523.7 7.3 571.2 7.2C618.7 7 666.3 7 714 7.3C761.7 7.7 809.3 8.3 857 8.5C904.7 8.7 952.3 8.3 1000 7.3C1047.7 6.3 1095.3 4.7 1143 3.8C1190.7 3 1238.3 3 1286 3.3C1333.7 3.7 1381.3 4.3 1428.8 4.3C1476.3 4.3 1523.7 3.7 1571.2 3.7C1618.7 3.7 1666.3 4.3 1714 5.2C1761.7 6 1809.3 7 1857 7.2C1904.7 7.3 1952.3 6.7 1976.2 6.3L2000 6L2000 0L1976.2 0C1952.3 0 1904.7 0 1857 0C1809.3 0 1761.7 0 1714 0C1666.3 0 1618.7 0 1571.2 0C1523.7 0 1476.3 0 1428.8 0C1381.3 0 1333.7 0 1286 0C1238.3 0 1190.7 0 1143 0C1095.3 0 1047.7 0 1000 0C952.3 0 904.7 0 857 0C809.3 0 761.7 0 714 0C666.3 0 618.7 0 571.2 0C523.7 0 476.3 0 428.8 0C381.3 0 333.7 0 286 0C238.3 0 190.7 0 143 0C95.3 0 47.7 0 23.8 0L0 0Z" fill="#715df2"></path></svg>