<svg id="visual" viewBox="0 0 2000 150" width="2000" height="150" xmlns="http://www.w3.org/2000/svg" xmlns:xlink="http://www.w3.org/1999/xlink" version="1.1"><rect x="0" y="0" width="2000" height="150" fill="#001220"></rect><path d="M0 113L18.5 112.2C37 111.3 74 109.7 111 111.3C148 113 185 118 222 118.7C259 119.3 296 115.7 333 114C370 112.3 407 112.7 444.2 113.8C481.3 115 518.7 117 555.8 114.2C593 111.3 630 103.7 667 103.7C704 103.7 741 111.3 778 115C815 118.7 852 118.3 889 117.8C926 117.3 963 116.7 1000 117.3C1037 118 1074 120 1111 118.7C1148 117.3 1185 112.7 1222 109C1259 105.3 1296 102.7 1333 103.5C1370 104.3 1407 108.7 1444.2 108.3C1481.3 108 1518.7 103 1555.8 104.2C1593 105.3 1630 112.7 1667 114C1704 115.3 1741 110.7 1778 110.7C1815 110.7 1852 115.3 1889 116.8C1926 118.3 1963 116.7 1981.5 115.8L2000 115L2000 151L1981.5 151C1963 151 1926 151 1889 151C1852 151 1815 151 1778 151C1741 151 1704 151 1667 151C1630 151 1593 151 1555.8 151C1518.7 151 1481.3 151 1444.2 151C1407 151 1370 151 1333 151C1296 151 1259 151 1222 151C1185 151 1148 151 1111 151C1074 151 1037 151 1000 151C963 151 926 151 889 151C852 151 815 151 778 151C741 151 704 151 667 151C630 151 593 151 555.8 151C518.7 151 481.3 151 444.2 151C407 151 370 151 333 151C296 151 259 151 222 151C185 151 148 151 111 151C74 151 37 151 18.5 151L0 151Z" fill="#ffd1d1"></path><path d="M0 119L18.5 120.3C37 121.7 74 124.3 111 125.5C148 126.7 185 126.3 222 126.8C259 127.3 296 128.7 333 127.5C370 126.3 407 122.7 444.2 122C481.3 121.3 518.7 123.7 555.8 125C593 126.3 630 126.7 667 125.7C704 124.7 741 122.3 778 119C815 115.7 852 111.3 889 110C926 108.7 963 110.3 1000 114.7C1037 119 1074 126 1111 126C1148 126 1185 119 1222 116.2C1259 113.3 1296 114.7 1333 115.7C1370 116.7 1407 117.3 1444.2 115.8C1481.3 114.3 1518.7 110.7 1555.8 109.8C1593 109 1630 111 1667 115.3C1704 119.7 1741 126.3 1778 128C1815 129.7 1852 126.3 1889 121.3C1926 116.3 1963 109.7 1981.5 106.3L2000 103L2000 151L1981.5 151C1963 151 1926 151 1889 151C1852 151 1815 151 1778 151C1741 151 1704 151 1667 151C1630 151 1593 151 1555.8 151C1518.7 151 1481.3 151 1444.2 151C1407 151 1370 151 1333 151C1296 151 1259 151 1222 151C1185 151 1148 151 1111 151C1074 151 1037 151 1000 151C963 151 926 151 889 151C852 151 815 151 778 151C741 151 704 151 667 151C630 151 593 151 555.8 151C518.7 151 481.3 151 444.2 151C407 151 370 151 333 151C296 151 259 151 222 151C185 151 148 151 111 151C74 151 37 151 18.5 151L0 151Z" fill="#ffbfc7"></path><path d="M0 123L18.5 124.2C37 125.3 74 127.7 111 127C148 126.3 185 122.7 222 121.5C259 120.3 296 121.7 333 119.8C370 118 407 113 444.2 113.2C481.3 113.3 518.7 118.7 555.8 119.7C593 120.7 630 117.3 667 118.5C704 119.7 741 125.3 778 128C815 130.7 852 130.3 889 128C926 125.7 963 121.3 1000 122C1037 122.7 1074 128.3 1111 130.7C1148 133 1185 132 1222 131.3C1259 130.7 1296 130.3 1333 130.7C1370 131 1407 132 1444.2 128.8C1481.3 125.7 1518.7 118.3 1555.8 116.2C1593 114 1630 117 1667 117.2C1704 117.3 1741 114.7 1778 113.3C1815 112 1852 112 1889 115.3C1926 118.7 1963 125.3 1981.5 128.7L2000 132L2000 151L1981.5 151C1963 151 1926 151 1889 151C1852 151 1815 151 1778 151C1741 151 1704 151 1667 151C1630 151 1593 151 1555.8 151C1518.7 151 1481.3 151 1444.2 151C1407 151 1370 151 1333 151C1296 151 1259 151 1222 151C1185 151 1148 151 1111 151C1074 151 1037 151 1000 151C963 151 926 151 889 151C852 151 815 151 778 151C741 151 704 151 667 151C630 151 593 151 555.8 151C518.7 151 481.3 151 444.2 151C407 151 370 151 333 151C296 151 259 151 222 151C185 151 148 151 111 151C74 151 37 151 18.5 151L0 151Z" fill="#ffadc1"></path><path d="M0 133L18.5 130C37 127 74 121 111 121.5C148 122 185 129 222 131.8C259 134.7 296 133.3 333 129.5C370 125.7 407 119.3 444.2 117C481.3 114.7 518.7 116.3 555.8 116.7C593 117 630 116 667 117.3C704 118.7 741 122.3 778 124.5C815 126.7 852 127.3 889 124.8C926 122.3 963 116.7 1000 114.8C1037 113 1074 115 1111 117.2C1148 119.3 1185 121.7 1222 123.8C1259 126 1296 128 1333 126.7C1370 125.3 1407 120.7 1444.2 120.7C1481.3 120.7 1518.7 125.3 1555.8 125.5C1593 125.7 1630 121.3 1667 121.5C1704 121.7 1741 126.3 1778 125.8C1815 125.3 1852 119.7 1889 116.8C1926 114 1963 114 1981.5 114L2000 114L2000 151L1981.5 151C1963 151 1926 151 1889 151C1852 151 1815 151 1778 151C1741 151 1704 151 1667 151C1630 151 1593 151 1555.8 151C1518.7 151 1481.3 151 1444.2 151C1407 151 1370 151 1333 151C1296 151 1259 151 1222 151C1185 151 1148 151 1111 151C1074 151 1037 151 1000 151C963 151 926 151 889 151C852 151 815 151 778 151C741 151 704 151 667 151C630 151 593 151 555.8 151C518.7 151 481.3 151 444.2 151C407 151 370 151 333 151C296 151 259 151 222 151C185 151 148 151 111 151C74 151 37 151 18.5 151L0 151Z" fill="#fb9cc0"></path><path d="M0 125L18.5 123.7C37 122.3 74 119.7 111 119.8C148 120 185 123 222 126.3C259 129.7 296 133.3 333 132.2C370 131 407 125 444.2 121.5C481.3 118 518.7 117 555.8 117.5C593 118 630 120 667 121.7C704 123.3 741 124.7 778 123.8C815 123 852 120 889 119.5C926 119 963 121 1000 123.8C1037 126.7 1074 130.3 1111 129C1148 127.7 1185 121.3 1222 118C1259 114.7 1296 114.3 1333 115.8C1370 117.3 1407 120.7 1444.2 124.5C1481.3 128.3 1518.7 132.7 1555.8 132.5C1593 132.3 1630 127.7 1667 127C1704 126.3 1741 129.7 1778 128.3C1815 127 1852 121 1889 121.8C1926 122.7 1963 130.3 1981.5 134.2L2000 138L2000 151L1981.5 151C1963 151 1926 151 1889 151C1852 151 1815 151 1778 151C1741 151 1704 151 1667 151C1630 151 1593 151 1555.8 151C1518.7 151 1481.3 151 1444.2 151C1407 151 1370 151 1333 151C1296 151 1259 151 1222 151C1185 151 1148 151 1111 151C1074 151 1037 151 1000 151C963 151 926 151 889 151C852 151 815 151 778 151C741 151 704 151 667 151C630 151 593 151 555.8 151C518.7 151 481.3 151 444.2 151C407 151 370 151 333 151C296 151 259 151 222 151C185 151 148 151 111 151C74 151 37 151 18.5 151L0 151Z" fill="#f38bc3"></path><path d="M0 134L18.5 135C37 136 74 138 111 138.5C148 139 185 138 222 138.2C259 138.3 296 139.7 333 139.5C370 139.3 407 137.7 444.2 135C481.3 132.3 518.7 128.7 555.8 126.8C593 125 630 125 667 127.3C704 129.7 741 134.3 778 136.3C815 138.3 852 137.7 889 136.7C926 135.7 963 134.3 1000 133.8C1037 133.3 1074 133.7 1111 132C1148 130.3 1185 126.7 1222 124.3C1259 122 1296 121 1333 121.8C1370 122.7 1407 125.3 1444.2 128.5C1481.3 131.7 1518.7 135.3 1555.8 136.5C1593 137.7 1630 136.3 1667 135C1704 133.7 1741 132.3 1778 131.5C1815 130.7 1852 130.3 1889 128.5C1926 126.7 1963 123.3 1981.5 121.7L2000 120L2000 151L1981.5 151C1963 151 1926 151 1889 151C1852 151 1815 151 1778 151C1741 151 1704 151 1667 151C1630 151 1593 151 1555.8 151C1518.7 151 1481.3 151 1444.2 151C1407 151 1370 151 1333 151C1296 151 1259 151 1222 151C1185 151 1148 151 1111 151C1074 151 1037 151 1000 151C963 151 926 151 889 151C852 151 815 151 778 151C741 151 704 151 667 151C630 151 593 151 555.8 151C518.7 151 481.3 151 444.2 151C407 151 370 151 333 151C296 151 259 151 222 151C185 151 148 151 111 151C74 151 37 151 18.5 151L0 151Z" fill="#e87cc8"></path><path d="M0 125L18.5 127C37 129 74 133 111 134C148 135 185 133 222 133C259 133 296 135 333 134.5C370 134 407 131 444.2 129.7C481.3 128.3 518.7 128.7 555.8 130.5C593 132.3 630 135.7 667 135.2C704 134.7 741 130.3 778 129.8C815 129.3 852 132.7 889 134.3C926 136 963 136 1000 134.7C1037 133.3 1074 130.7 1111 130.5C1148 130.3 1185 132.7 1222 133.3C1259 134 1296 133 1333 134.2C1370 135.3 1407 138.7 1444.2 138.2C1481.3 137.7 1518.7 133.3 1555.8 132.3C1593 131.3 1630 133.7 1667 135.5C1704 137.3 1741 138.7 1778 137.2C1815 135.7 1852 131.3 1889 128.8C1926 126.3 1963 125.7 1981.5 125.3L2000 125L2000 151L1981.5 151C1963 151 1926 151 1889 151C1852 151 1815 151 1778 151C1741 151 1704 151 1667 151C1630 151 1593 151 1555.8 151C1518.7 151 1481.3 151 1444.2 151C1407 151 1370 151 1333 151C1296 151 1259 151 1222 151C1185 151 1148 151 1111 151C1074 151 1037 151 1000 151C963 151 926 151 889 151C852 151 815 151 778 151C741 151 704 151 667 151C630 151 593 151 555.8 151C518.7 151 481.3 151 444.2 151C407 151 370 151 333 151C296 151 259 151 222 151C185 151 148 151 111 151C74 151 37 151 18.5 151L0 151Z" fill="#d76fd1"></path><path d="M0 135L18.5 135.8C37 136.7 74 138.3 111 139.2C148 140 185 140 222 139.7C259 139.3 296 138.7 333 139C370 139.3 407 140.7 444.2 140.2C481.3 139.7 518.7 137.3 555.8 136.7C593 136 630 137 667 137C704 137 741 136 778 135.3C815 134.7 852 134.3 889 135.3C926 136.3 963 138.7 1000 139.7C1037 140.7 1074 140.3 1111 139.2C1148 138 1185 136 1222 136C1259 136 1296 138 1333 137.7C1370 137.3 1407 134.7 1444.2 134.5C1481.3 134.3 1518.7 136.7 1555.8 138C1593 139.3 1630 139.7 1667 140.3C1704 141 1741 142 1778 140.3C1815 138.7 1852 134.3 1889 134.5C1926 134.7 1963 139.3 1981.5 141.7L2000 144L2000 151L1981.5 151C1963 151 1926 151 1889 151C1852 151 1815 151 1778 151C1741 151 1704 151 1667 151C1630 151 1593 151 1555.8 151C1518.7 151 1481.3 151 1444.2 151C1407 151 1370 151 1333 151C1296 151 1259 151 1222 151C1185 151 1148 151 1111 151C1074 151 1037 151 1000 151C963 151 926 151 889 151C852 151 815 151 778 151C741 151 704 151 667 151C630 151 593 151 555.8 151C518.7 151 481.3 151 444.2 151C407 151 370 151 333 151C296 151 259 151 222 151C185 151 148 151 111 151C74 151 37 151 18.5 151L0 151Z" fill="#c065db"></path><path d="M0 135L18.5 135.2C37 135.3 74 135.7 111 135.8C148 136 185 136 222 136.8C259 137.7 296 139.3 333 139.2C370 139 407 137 444.2 136.7C481.3 136.3 518.7 137.7 555.8 139.3C593 141 630 143 667 143.8C704 144.7 741 144.3 778 142.7C815 141 852 138 889 137C926 136 963 137 1000 138C1037 139 1074 140 1111 140.8C1148 141.7 1185 142.3 1222 143C1259 143.7 1296 144.3 1333 144.7C1370 145 1407 145 1444.2 145.2C1481.3 145.3 1518.7 145.7 1555.8 145.7C1593 145.7 1630 145.3 1667 144.3C1704 143.3 1741 141.7 1778 141.5C1815 141.3 1852 142.7 1889 141.8C1926 141 1963 138 1981.5 136.5L2000 135L2000 151L1981.5 151C1963 151 1926 151 1889 151C1852 151 1815 151 1778 151C1741 151 1704 151 1667 151C1630 151 1593 151 1555.8 151C1518.7 151 1481.3 151 1444.2 151C1407 151 1370 151 1333 151C1296 151 1259 151 1222 151C1185 151 1148 151 1111 151C1074 151 1037 151 1000 151C963 151 926 151 889 151C852 151 815 151 778 151C741 151 704 151 667 151C630 151 593 151 555.8 151C518.7 151 481.3 151 444.2 151C407 151 370 151 333 151C296 151 259 151 222 151C185 151 148 151 111 151C74 151 37 151 18.5 151L0 151Z" fill="#a05fe6"></path><path d="M0 142L18.5 142.7C37 143.3 74 144.7 111 145.3C148 146 185 146 222 144.8C259 143.7 296 141.3 333 141.3C370 141.3 407 143.7 444.2 144.5C481.3 145.3 518.7 144.7 555.8 144C593 143.3 630 142.7 667 142C704 141.3 741 140.7 778 141.2C815 141.7 852 143.3 889 143.3C926 143.3 963 141.7 1000 141C1037 140.3 1074 140.7 1111 141.5C1148 142.3 1185 143.7 1222 144.2C1259 144.7 1296 144.3 1333 144.5C1370 144.7 1407 145.3 1444.2 145.3C1481.3 145.3 1518.7 144.7 1555.8 144.3C1593 144 1630 144 1667 144.5C1704 145 1741 146 1778 146C1815 146 1852 145 1889 144.3C1926 143.7 1963 143.3 1981.5 143.2L2000 143L2000 151L1981.5 151C1963 151 1926 151 1889 151C1852 151 1815 151 1778 151C1741 151 1704 151 1667 151C1630 151 1593 151 1555.8 151C1518.7 151 1481.3 151 1444.2 151C1407 151 1370 151 1333 151C1296 151 1259 151 1222 151C1185 151 1148 151 1111 151C1074 151 1037 151 1000 151C963 151 926 151 889 151C852 151 815 151 778 151C741 151 704 151 667 151C630 151 593 151 555.8 151C518.7 151 481.3 151 444.2 151C407 151 370 151 333 151C296 151 259 151 222 151C185 151 148 151 111 151C74 151 37 151 18.5 151L0 151Z" fill="#715df2"></path></svg>